<mxfile host="drawio-plugin" modified="2023-12-22T20:06:53.474Z" agent="5.0 (Windows NT 6.2; Win64; x64) AppleWebKit/537.36 (KHTML, like Gecko) Chrome/104.0.5112.102 Safari/537.36" etag="ys0fm34EMLZDHh1bIZt5" version="20.5.3" type="embed" pages="2"><diagram id="C5RBs43oDa-KdzZeNtuy" name="DER"><mxGraphModel dx="1129" dy="542" grid="0" gridSize="10" guides="1" tooltips="1" connect="1" arrows="1" fold="1" page="1" pageScale="1" pageWidth="827" pageHeight="1169" math="0" shadow="0"><root><mxCell id="WIyWlLk6GJQsqaUBKTNV-0"/><mxCell id="WIyWlLk6GJQsqaUBKTNV-1" parent="WIyWlLk6GJQsqaUBKTNV-0"/><mxCell id="IAIoXoFmA8qTHMix6zNg-17" value="" style="rounded=0;whiteSpace=wrap;html=1;imageWidth=1920;imageHeight=1080;imageAspect=0;sketch=1;curveFitting=1;jiggle=2;fillColor=#FFFFFF;fillStyle=solid;" parent="WIyWlLk6GJQsqaUBKTNV-1" vertex="1"><mxGeometry x="148" y="83" width="360" height="640" as="geometry"/></mxCell><mxCell id="IAIoXoFmA8qTHMix6zNg-19" value="&lt;font size=&quot;1&quot; data-font-src=&quot;https://fonts.googleapis.com/css?family=Raleway&quot; face=&quot;Raleway&quot;&gt;&lt;b style=&quot;font-size: 18px;&quot;&gt;Portfolio Bennett Imhoff&lt;/b&gt;&lt;/font&gt;" style="html=1;shadow=0;dashed=0;fillColor=#5CB874;strokeColor=none;fontSize=16;fontColor=#ffffff;align=left;spacing=15;fillStyle=solid;" parent="WIyWlLk6GJQsqaUBKTNV-1" vertex="1"><mxGeometry x="149" y="83" width="358" height="55" as="geometry"/></mxCell><mxCell id="IAIoXoFmA8qTHMix6zNg-29" value="&lt;h1&gt;&lt;font style=&quot;font-size: 20px;&quot;&gt;Edición del portfolio&lt;/font&gt;&lt;/h1&gt;" style="text;html=1;strokeColor=none;fillColor=none;spacing=5;spacingTop=-20;whiteSpace=wrap;overflow=hidden;rounded=0;fontColor=#5CB874;" parent="WIyWlLk6GJQsqaUBKTNV-1" vertex="1"><mxGeometry x="156" y="267" width="330" height="45" as="geometry"/></mxCell><mxCell id="IAIoXoFmA8qTHMix6zNg-31" value="&lt;p style=&quot;line-height: 220%; font-size: 14px;&quot;&gt;En esta sección podrás editar los datos e información que ven los usuarios de tu portfolio web.&amp;nbsp;&lt;/p&gt;" style="text;html=1;strokeColor=none;fillColor=none;align=left;verticalAlign=top;whiteSpace=wrap;rounded=0;fontColor=#000000;" parent="WIyWlLk6GJQsqaUBKTNV-1" vertex="1"><mxGeometry x="160" y="290" width="336" height="86" as="geometry"/></mxCell><mxCell id="IAIoXoFmA8qTHMix6zNg-32" value="&lt;p style=&quot;line-height: 220%; font-size: 14px;&quot;&gt;&lt;b&gt;¡Mucho cuidado!&lt;/b&gt;&amp;nbsp;Desde el momento en que clickees &quot;guardar&quot; estos cambios se verán reflejados automáticamente para todos los usuarios.&lt;/p&gt;" style="text;html=1;strokeColor=none;fillColor=none;align=left;verticalAlign=top;whiteSpace=wrap;rounded=0;fontColor=#000000;" parent="WIyWlLk6GJQsqaUBKTNV-1" vertex="1"><mxGeometry x="159" y="354" width="336" height="86" as="geometry"/></mxCell><mxCell id="IAIoXoFmA8qTHMix6zNg-33" value="&lt;h1&gt;&lt;font style=&quot;font-size: 17px;&quot;&gt;Información personal&lt;/font&gt;&lt;/h1&gt;" style="text;html=1;strokeColor=none;fillColor=none;spacing=5;spacingTop=-20;whiteSpace=wrap;overflow=hidden;rounded=0;fontColor=#5CB874;" parent="WIyWlLk6GJQsqaUBKTNV-1" vertex="1"><mxGeometry x="159" y="475" width="330" height="45" as="geometry"/></mxCell><mxCell id="IAIoXoFmA8qTHMix6zNg-34" value="" style="shape=image;verticalLabelPosition=bottom;labelBackgroundColor=default;verticalAlign=top;aspect=fixed;imageAspect=0;image=data:image/png,iVBORw0KGgoAAAANSUhEUgAAAaAAAAGpCAYAAADLOeKRAAAAAXNSR0IArs4c6QAAAARnQU1BAACxjwv8YQUAAAAJcEhZcwAADsMAAA7DAcdvqGQAALO/SURBVHhe7Z0HfFNV+8d/dO+9C2WUvffeewsKogjiRnHvvSfiFheKiqAgiCBDZO+9V9m0pXvvNmk6/vc53PpH3tKcm9wkN+35vp+8zbmFWpLc8zvPrldSUlIJgUAgEAisjIP8VSAQCAQCqyIESCAQCAQ2QQiQQCAQCGyCECCBQCAQ2AQhQAKBQCCwCUKABAKBQGAThAAJBAKBwCYIARIIBAKBTRACJBAIBAKbIARIIBAIBDZBCJBAIBAIbIIQIIFAIBDYBCFAAoFAILAJQoAEAoFAYBOEAAkEAoHAJggBEggEAoFNEAIkEAgEApsgBEggEAgENkEIkEAgEAhsghAggUAgENgEIUACgUAgsAlCgAQCgUBgE4QACQQCgcAmCAESCAQCgU0QAiQQCAQCmyAESCAQCAQ2oV5JSUml/FwgEAgUk5+fj8uXL+Off/7Bpk2bcPbsWeTk5MDb2xvR0dHo27cvbrrpJrRs2RL+/v6oV6+e/DcFdR0hQAKBwCTKysqwbds2/PLLL9i8eTOys7Pl7/wvbm5u6N+/P6ZNm4YJEybA2dlZ/o6gLiMESCAQKKa0tBTz5s3DRx99hLS0NPmqcXx9fTF58mS8++678PHxka8K6ipCgAQCgSIMBgN++uknPP/889DpdPJVfpycnHDvvffi7bffZm46Qd1FJCEIBAJuyPKZP38+XnzxRZPEhyDX3cKFC9nPEdRthAUkEAi4qKiowJIlS/Dss8/WGO/hxcvLCxs2bECnTp3kK4K6hrCABAIBF/v27cPrr7+uivgQhYWFeO6551gWnaBuIgRIIBAY5fDhw5g5cyYSExPlK+pw9OhR5o6juJKg7iEESCAQ1MilS5fw8MMP4+LFi/IV9SgqKsIXX3zBaocEdQ8hQAKB4Ibk5uaylOkTJ07IV9TnypUrmDFjBlJTU+UrgrqCECCBQFAtlK02Z84c/Pnnn6istGyu0pkzZ/Doo48iJSVFviKoCwgBEggE1UKFpl999RX0er18hQ8Xp3q4qauvvOJn/fr1TPDILSeoGwgBEggE/4GsnZ07d2L27Nkmic8jI4Lwy8NRGNJWWZEpJSJ89913LCZkao2RwL4QAiQQCP5DUlIS61KQkZEhX+Fnah9/PDsuBJ6uDnjvtjA0DnGRv8MH1Rq9//77+Oyzz4QlVAcQAiQQCP6FrJ9XX30Ve/bsURz3mdjNFx9Pj0CwjxNbd2jojgeHBsLNWVn3a7KEPv74Y2YNUecFQe1FCJBAIGCUl5ezTZ+6HdBzXmi6QrdoD3w6IwK+Ho7yVcDJsR5mDg3CqI4+7M8ogYpU33nnHSxatEiIUC1GCJBAIGAcPHiQWR5KiQp0wfu3hyPS/3/dbV5uDvjy7kgMaOUlX+GnpKSEtf0hURQxodqJECCBQMDqfT799FMkJyfLV/hwdKiHz++KRL+Wnje0csL8nNmfaR3pJl/hp7i4mNUhUeNS0S2h9iEESCCo41CsZ+nSpVizZg1LAuDFzdkBH98ZgbGdfZgQ1QSJzxuTwxDqezU+pIS8vDyWFPHXX38pcg0KtI8QIIGgjnPkyBG8+eabisTHSRKcW3v54c5+/vKVmiHraHxXH7x3ezj8rokT8UIi9Mgjj2DBggXCEqpFCAESCOowFOx/+eWXFXe4bhLqipcmhsDHnV9MSLSm9fXHV/fWZ7EhpZAIvfbaa/jjjz8UiaVAuwgBEgjqKLSJk+vt0KFD8hU+fDxc8PXTg9C0foB8hR9y1VG69ksTQlmtkFKysrJYmvju3bst3h5IYHmEAAkEdRTqu0ajtZUUfLq5OOLN+3piYLemgK/0cPKQv8MPdUuYNTwIL94UAleFNUIEFco+8MAD2LFjh3xFYK8IARII6ijff/89m8ejhDG9G2P68JZXF66+QID03FFZtwOCXHBPjg3B+7eFM0FSSlxcHB5//HHFv79AWwgBEgjqIJcvX8bnn3+uKKssIsgTj9zcAX7ervIVCWcvSYTaSCKkPMXaVRKeB4YGstY97i7Kt6Jz586xYtX09HT5isDeEAIkENQxqLMAbdxKijspi43Ep3e7cPnKNbhIIuQXLYnQNcLECaVyPzUmGE+ODoazo3JLiDpoU52Q0qapAm0gBEggqGPs27cPmzdvlld8jO7ZGI9O6nCDeh/pmlsA4N9Ceqo8xZra97w0IQSv3RIq/Xz5IidkwVEc64MPPhBJCXaIECCBoA5B7W0ojVlJp+vwQE+8/2BvuLvWVEQqiZCrHxBI7jjlMSE3Fwc8PioYj40MVhwTqhrjsHbtWpGebWcIARII6hCXLl1iHQ94rQVnJwdMH9kSTSI4B8xRYoIvueOUi5CHqwOevykEM/orT+/OycnBJ598Iiaq2hlCgASCOsSvv/6qaJOmxIO7R7dm6dd8kDsuSBKhZlcDRwoJ8nbC7DvCcWd/vg4L13LgwAE2R0hgPwgBEgjqCJmZmaypJy+kH/ePa4tm9f3kK5zQX3QPvBoTclDe+426K8y5IwJjOvnASIu5/0DxoK+//hrbtm2Trwi0jhAggaCOQOJTUFAgr4zTplEgHprQTl6ZAFlC3g0kQVKemBAoWUJv3hqGNg2UpXdTDIg6JaSmpspXBFpGCJBAUAegPmrLly+XV8YhI+b5aV3h66U8tfpf6knbi2eE9AiTLyijQ5Q7fpjZQHHz0lOnTmHFihUiK84OqFdSUiLeJUGthrKkqE6EvlINTNWDrlFvMXqQe6rqK23WZClQixpq1klfqWaGMsiuzbKiWTXu7u7SZl0Pjo6O8PT0ZNe9vLzYw8fHh3319vaGv78/goOD/30EBgbC1dUVLi4u/z6cnZ3/vUY/U03WrVuHe++9lwXreejWKhQr3h2DsMCr/yazICHIPgPosmhx9ZoC/jyQi7u/SUCRnj/DrVevXli8eDFCQ0PlKwItIgRIUGsgcSABoaFq5IKhVGOqkqcHPaeOz7QBV30loSkrK5P/tnUhgSGBImHy8/NjgkTP6WtISAh70OZJD3oeHh7OxMkU6N9IxZpz5szh6nxAmW+vzOiO5+/oAielhTk3olwvidBZoDRPvsBPoa4Cz/+WjPlbs1FWzrddkYhTfdDNN98sXxFoESFAAruFpngeO3YMJ0+eZI/Tp0+za2SpkMVCFg497G2ImYODA9tASXDc3NzYgyyppk2bol27dmjfvj06dOiA+vXrsz9rDLLs7rzzTmzZskW+UjNhAR5YLlk/PVqb5jq7Ifrcq5ZQhfJ5PpfS9Bj3YSzOp/B3POjUqRP27NkjrwRaRAiQQNOQq4zcYOQSo4308OHDbHwAPS5cuFCnh5ORddStWzd0796dPUiQqtx/Hh4e/7rx6HUaPHgwsw55GNKlAdbOGa+e9XMtBQlAfpz0RPm2s+JgHqZ+EQ8DpxVEkOiSO06gTYQACTQH1amcOXMG58+fx8WLF9kGSo8rV67YnTVjTYKCghAdHY1mzZqhRYsWaN68OXtOViLFf3iD8r+8MhxTh7WQVypTWXHVFafjE8NrKZf+6p1fxeP3vZIlxcn06dNZlwS1Y2oCdRACJNAEJDRUv/HPP/8gJiYG+fn5zPIRTSZNg5IiqhIg6DXkbb1Dw+au/HkPvNyd5SsWwFAEZJ2WFIW/GWoVx+JKMOK9S8gq5DuIkNty48aNCAtT2Z0oUAUhQAKrQqdwyiqjWE1VW5jVq1cjPj5e/hMCW3Lb0OZY9OoIeWUppC2nQHq/8xOuPldAga4CD89PxOLdOVx/MyAgAAsWLMDQoUPlKwItIeqABFaBss62bt3K+nU9+uijGDt2LEaPHo25c+cK8dEQw7tFyc8sST3ALQRwUp7VR4PshrT1Yn3jeKDYIblzRU2QNhECJLAYFK+hZIHnnnsOw4cPZ/74N954A0uWLGHDxETnYm3h5eGMLi2sVDfj7AG4B8sLfiiS07O5JwK8+IpTKUklNjaWJbMItIcQIIFqkKCQpUMnzo8//phlaA0YMABffvklq06nLDZb1d0IjFM/2As+nsq7WJuMV6SkKMrb9DQLc0WjEH7rKTExUdHwPYH1EAIkMBvqCED1FiQ699xzDwYNGoRXXnmFCZGwcuyHiCAvuLsqFwSTcZDEzlO5xUUNSns1kywoTtLS0oQAaRSRhCAwGemzw4abLVq0CGfPnmUdBuzNwqGq/zA/T4T4klvH7erD2w3+0lcvNxd4u7vARfoznq4u8HRzvmE6L0uu0BlQIX0tKCmFzlCG3CI98qRHbpEOedK1zLxipOYWIU16FEp/VmtMGdIc3z4zCN4eVrSCSvOBjOPSE2Xb0JI9OZg294q8qplWrVph1apVrE5KoC2EAAm4oU2W0qMTEhKwbNky1upEyWRNa0D64OrsBHfp4eZCD0e4uzijQZA3Gof6IjrUD41CfBHu74WIAE8E+3pIJ+rqRcWSkFil5BQhITMf8Rn5iEvPQ6z0uCI9zy4sga60XHqUMSErkZ6XW8GSvGdMa3z2+AB41Dj5VGWoRU/Wqaup2QrYda4IA9+8KK9qpkGDBtiwYQMaNWokXxFoBSFAAi6SkpLYTUwPqtehNGot4OrsiPqB3mgY7COJjI8kKpKwSOISLokLPQ+VrJsgb3fLVPVbABL5vGK9ZClJ1pIkUKk5hcxqSsgsYGLFvmYVMKtK7cSuBye0w8cP94Mr9/A5FagsB3IlISlOky/wcTyuBF1eOi+vaiYiIgKbNm1C48aN5SsCrSAESFAjcXFx+Pbbb5kLg3zpFO+xJS6S4LRtEITerSLRNToMrRsEwsfdRTq1O7MHCZItLBpLU1pWjmJ9mfQwsAeJ0IELKdh7LhmHLqYip9D8GMcD49vik0f7McvRqrCaIGWp+EclAerGKUDCAtIuQoAE/6GqUJQyh2iA2cKFC1nXaGtDFgvFYKgyv4Fk4fRqEYm+rUl0wuFvzoyaWoihrALnkrOx+2witp1KwJnELBZ7YrGo0jLu6Mr0ES0x98mB8LRkF4TqKEoF8iQriNr0cLLhRAFGf3BZXtUMWT7UYSMqyho1TgIlCAES/Au1viFXxdq1a9kNy9u8Ui3cpZN38wh/tI0KRsvIALSsH4hW0oPiN/biQrM1dDPnFOiYIJ2VhOi3HWew51zS1W8aYUyvRvj55eHw97aywNOcoJxzQAV/Asu8zVmYNT9RXtVMx44d8eeff7KRFgJtIQRIwDLXNm/ejA8//JCNNKBEA2tVjpOwkBttVOcmGNmpMRMbHw9XeEhiJBpIms/cv4/g+V+2y6ua6dIiBCvfH4twNYbQKcGEMQ0P/pCAH7Zky6uaoTY81I6H2vIItIU4VtZRWLA7Lw87d+7EhAkT2OAuquWha5YUH7JyKDmgd8tIzL5zAE5+djf2vD8Nr93aG92bhbPsNE/XG6c7C5TRNNxPfmac2JR85BfZoGOAwve6tKwShy+XyCvjUJdwmq8k0B5CgOoglEhALon777+fiQ9ZP5YsGHV0qMdcancNbos5MwZi+fMT8Perk/DI6M6ICvZRuv8IFNAiIlB+ZpzsfB2OX7Su25VRSR8A/g/BmSQd0vP43HU0sI9iQDQ6XaA9hADVIUhkqiyehx9+mHWhtmRWG1kyE3o0w5Knx+Ovl27GR3cNwt1D2qF9w2A4i5iOVSCBJ4uTl+Xb+WprVKWSxIT/AHRIsn6yi/jGMZDwNGnShI2nEGgPsQvUAagNCXUqeOihhzBu3DgmQpbIbKP0Z+ok0E4SmLen9sOxz+7Cr0+OxeguTVitDrnfBNaFrE9yd/KyencsUrKtnGpPAsTp9i3UVWDb6QKUlPIJFs1EoqF8Am0iBKiWQ8Lz9ttvY9SoUfjll18sMuDNxckRXaJD8fi4Lpj/yChsfONWPDW+KysIFdieIe0bys+MU2oox1fLj/PqgTqw7De+/+Dl9FJsO8PfNYHGlrds2VJeCbSGEKBaCtXyfPbZZxg/fjzrRp2amip/R126Nw/HDw+PxO/PjMfrU/pgeMdGrH+aQDv0lN6jYB/+5p3Ltl7AxSRrdbqQhKdMOhRx1gDN25SF1Bz+bLkhQ4bA19dXXgm0hhCgWgbFdHbv3o0xY8bgpZdeYn3baCaKWlDadGSAF27t0xI73p2KrW/dhlt6NWfZayKuo01IfDpLFiovV9IKsGTTeVbganEqyoFyvoy2g5eLMX9rFndhLcV9Jk2aJK8EWkTsGLUESjA4duwYXnjhBdxyyy3Yv3+/qunUJDxdosPw4i09sey5m/D9rBHM7SbQPlRXRXEgZyfOIW6S8Pzyzxmcis2Sr1gQ6gVnMB5zSs014Plfk2Eo5/9M9+rVixWhCrSLEKBaAE0epdHWU6ZMYe1z1E4w6NQ4BPMfHomlz47HsxO6o0OjENGZwI6gRISh7Ruypqy8xKXm44nPt7Ou3BaFrJ+ymi0gEp3vt2Rj3wX+5AhKv37sscfYV4F2Ee+OHUOuNRp5TeOun3/+eVy5ckW1eh4vN2dJaIJZfGfz27dhUu8WbG4ObWYC+6O99F72aMbfioaM590nU/DUlzvY6AiLUUzjPG5s1dB3tpwqwJf/ZLACVF46derEJvIKtI0QIDuFkgrmzJmDO+64g3UwUAs3ZyfWFueTewZjzSuTcHu/VnDldN0ItAulyD9/cw/FCSKLNpzFZ78fQ4mev08bN9R6p+TGha8kghuOF+DBHxKRXchvibm5uTE3NHVAEGgb0QvOzqgqJn3xxRdx6tQpVRMMujULw6uTe7OAtZ+Hq2iHU8ugDf3lX3fg8zWH5St8eLk749mpXfDynSpbFAUJQH6svPgv9LuuO5aPR39KQnymsvZATZs2xbp168QEVDtACJAdQSOvf/31V7z77ruqxXlofk6TUD/MGtUJd/RvzdaC2gtNXx3/3nJcTFGeZv3QhHZ47e4eCPJ1N799UoUkKhkngLL/jevoDBWS+BTgMUl8UnKVHbCcnJzw6aef4r777pOvCLSMECA7gJIM9u7dy24sOtmpkd3m4FAP7aKCcHu/1ri5Z3NEBoqi0bpAWXkF5m08jtcX72aD7ZTg7OSAIV0aMGuof4dIM0RI+vwWJl+1fq6p/6FP9aVUPb7blIXvt2SxrgdKufXWW/H999+L5qN2ghAgjUNi89VXX+GTTz5hcR81xMfNxRFPjOuGuwa1ZX3CRGJB3YJGft/28SrsOM03T+dayC0b7OeOSYOaMpdcqD9/geu/lEvWT/YpoLRQvnDV5fbb7hzMWZ2Os0l6lFUo/5y3atUKS5YsQfPmzeUrAq0jBEijUKyHstpefvll1rlaDSgAPaBNA7w1tS9aRIjZKHWZhMx8DH9jGa5IX02lQYgXHrmlI24eEI1AHzd4e7hwWEXSdsNGcF+B3lCJrMIyHLxUjA9XpWP/RdN70Pn4+GD27Nm48847Req1HSEESIOQlUNTSSnLjdKszU2tppqd3i0icfeQtizDTbTKERCbjsdj1ncbkJT9/5aIKdSXhKhXm3B0bRmCllEBaBLhg7BAT/h5USKL/IckqKYoPTUFCZdOS1ZOMU7E67DnfBFiEnXQK0ixvh6yyp599llWiuDhYYJFJrAZQoA0BrXSoZMc+bFzcnLkq6bjI4kNpd9SOnWon5UnXQo0DcWDFmw9hZcW7UChCrU+FCOijDlP6UGdz9lXV+mrmxPyCvUoKDZAp9ehWPpvFZRUSIJUUUMFED933XUXPv74YyE+dogQIA1BLrfXX38dy5YtY4kH5uDh6swKDz+6ayBa1ucfSiaoW1RI1vYHy/fjk1UHUVJqgVofC0IZbxMnTsQXX3wBPz/+ya8C7SAESAOQi23r1q14//33WVGpuYkGzSMC8NDIjszqEe42gTHIEvpi7WF8tvowsgr4R13bGio2pZKEhg35x00ItIUQIBtDhaQLFy7EO++8g5SUFPmqaTg5OOC2fi3x0i09ERnoLfq1CbgpLSvHou0xeHnRDuSXKCv8tDbU5fqRRx5hjXeF5WPfCAGyIVRM+u233zLLx5xBcRTnpdHLz03swYpJyRcvEJjC+mOxuG/uP8gu1MlXtAXV9zzxxBOsEwi13BHYN2KnshGXL1/GU089hbfeesss8aHebTf3ao6FT4zFjEFthPgIzGJEx8ZoGxUsr7SHu7s7unTpIsSnliB2KxsQFxeHBx98EL///rtZKdY+Hi54d1o/fHnfUDabR/RuE5gLZagdvGieK9iSFBYWIiYmxuzSBIE2EAJkRSiz7cCBA2x8AjUUNTXTjSaPtmsYjLWvTMKDIzrC19NV/o5AYB47ziRqOhuO7pnTp08zIRLYP0KArARltm3btg3Tpk1jY7JNxdPVGfcNa4/lz09A5yZiIqlAXTYei5OfaReygAoKCuSVwJ4RAmQlqJP1559/jsRE5f23qvDzdMM3Dw7Hm7f3RWSAaB4qUBedoQx7zibJK+1y8eJFpKWlySuBPSMEyEpQ3GfHjh0m1fhQs9BuTcOx4Y3JuKVXc2YFCQRqcyE5B5mcdUAUb5w88Sa89fILGNS/Lxo3jEJoSDC8vb3h6urKBuBdD/0dKh719PBAYIA/GkRGoF2b1njw3rvw09dfsvRqHkpLS7F9+3Z5JbBnRBq2lfjxxx/x8MMPyyt+qLZn6oBWeGp8NzQL95evCgTq8/uus3jsh80o1BmvA/Ly9MSnH76PSePHoqK8HJlZWbiSmISk5BRkSdZ+bm4eiktKoJfEoqysjKVPUwabt5cnggIDEBocjAb160uPSLg4Xz1Q9RsxBqfOnGXPjTFo0CD8/fff8kpgrwgBshJz585lDROVQF0M3rq9L6b2awUvO+hoUCRtXOekU3R8Rh5yi/QoLDGwzYxGent5uMDbzYX1o2sRGYBwf89qT8kC21BeUYm3l+3BRysPclnp4eHh+GPxIrRp2gSVN8hIo0y1CunnVlZWsA7V9KgpU/PVd97H3Hk/yKuaob5vycnJzNoS2C9CgKzEli1bMH78eO7Mt/pB3nhnaj82LE5r83r0hnJkF5awti37z6diy8l4HL6UisSsAmmzkf+QESiFvHX9IPRvUx+D2zZEVIg3/D3dmOiKdHLrk1+sx6x5G7Fi3wX5Ss20ad0K2zdvglOFAZUmZnNez+ZtO3DrXfcw0eKB7qlevXrJK4E9IgTIStBp7eabb8bx48flKzemR/NwvD6lD/q1rq8ZK4FOxUlZhdh7Phl7zyXjgPT1TFI2dCqk7NK/kAS3S3QYeraIQG/p0SYqiBXZCqxDSk4hbpm9EsfjMuQrNTNj+nR89/VclBYVoLzU9ELqa4mNv4LRt0xBanq6fKVm3n77bTzzzDPySmCPiCQEKxEaGop77prBArA3gsRmTNdozH94FBscpxXxyS3SYc5fBzHuvT/x6Peb8N36Yzgam66K+BB0AkrILMDK/Rfw2m+7cOtHq3D7x6ux64zpGYMCZRSUGHA5LU9eGWfo4EHsq4OTegkx3t5eaNY0Wl4ZZ9euXfIzgb0iBMhKOJaV4O7O/nhqXGeE+nr8x61GLidyP1H36m9mDkPjUF/5O7aD2vTT1Mz3l+9D28d/wptLduN8cra0UVm2USU1xUzNKcKGY3EY8eYy3CydynfGaLs4sjZwLimL+72lWE7v3lddX2oKECU2RDduJK+MQ+nYVN4gsF+EC84a6PJRcepvIPkk+bKw/3wyNp2IR2x6HsrKK1lNT99WkRjavpEmerml5Rbhz30XsHjnGRy5nMYVlLYkAV5uuKlHM9zetxVz0WktJlYbeGnRTny+5pC8qpnoJo1x+vgxeSV9vHOzWaKBudDnjJIQ3pr9EcucMwZ5FZYuXYru3bvLVwT2hhAgS1OSh4ojfwBZl5n4VEFZR+TCIkvDzcWJtdfRAifjM/DUT1tZUgElG2gF8kaG+3th1shOeGhURxEfUpnBr/3ODkY8TL9jKr7/9ht5BegLpQOWQR3LeO36jXj46eeQl58vX7kxXl5erLh76tSp8hWBvSFccJaExOfkKiDz0n/Eh6BTvKebM8v60oL4ULr0rztiMPSNpawaXkviQ9DLl5xdiNcW78KD325gGXck3gLzIffm8Vj+zgJ9eveWn13FwVG9w0CTRg3h6ck3WpvG18fGxjLLSWCfCAGyFEVZqDy5GkjlK6yzJem5xXjl1514nIoQNT6MjERn2e5zmDznL6w/GsumeQrM48ilNOg4Dxw0BqFjh/by6ioOTuoJUMMG9eHnyxcDpTojGmNfUmI/U1wF/0UIkCUozkHF4WWoTD3zP5aP1sgp0uGer9bh5y2n7CrQfzIuA49+v5klKwjM48AF/vEL1L0gMCBQXl2lnoPjVR+pClCBaasWzeWVcUiAyBIS2CdCgNRGX3g14SDniqbFh9wWF1NycPMHK7H15BUY7MySoFeWalemfrKajZLWmsvQnjgWx1d3QzRq1BAe17nIKIvTgURIJbp06CA/M058fLwQIDtGCJCalBZfFR+yfDROXEY+6/t16GKqfEUFaCOSNieXhpFw79gKHj07wrN/N3j26QyPru3g2qIxnAL9UY+z6SQPJJzP/7INS3adgaFMuOOUQsJN6fW8NGwQ9b+1bNL7Xs9Bva2kU4d28jPjUIF3Tk6OvBLYGyILTi0MOlQc+xP1UmIk60LbGyH1bLt59l/Ycy6Ju+3JDZE2H+cGYfDq01USnA5waRSJeq6uqOfiLAmNtCnRxkSWoCQUlWVlqNQbUJaTi5KjZ1C054j09TS7Zi4hvh6Y/8goDG4XJV8R8BAvHURGvbWMfTUGdat+/dVX8OxTTzKr51oMxUUo06sTi6Empg1bd0AZZ4ufn376Cbfddpu8EtgTQoA40el0yMjIYKctvV6PgIAABAYGwpcCpmWlwLlNqLy8V9pstS0+1CT0gW/WY+2hS/IVE5BExcnfB+6SVeN783B4dGmDenJHY0VIwmRITkP+mm3IX7cdZWmZqCjWyd9UDhXzrn7lFnRsHMLa+wiMQ90mpn26Fhn5xt1Y3l5emPvF55gyeZJ85f8p05XAUFIkr8ynz/DRiDl7Tl7VzCOPPII5c+bIK4E9IVxwHJw/fx6vvvoqxowZg759+6J///7scf/992PtmtWovLAdlXEHNC8+5G6Zt+E4Np+Il68oxzk8BAF33YyIT15C+HtPw7NnR9PEhyDrKTIMgTNvQ9RPsxHywoPw6NGBXTcFSqh47PtNuJyaK18RGCMxqxAlpXwWKCUINIyq3sJkLjgT37fq6KzADXfkyBH5mcDeEAJkhJSUFDz66KP45ptvcOHCBRgMV29WagGyZs0aPDBzJn76/hug3Hw3kqU5GpuGr9YdMamHG8VtvEf0Q+RXryPo4TtYjKeek3qxHEfJovIdPxgRs59F2KsPwynItNlHx+PS8dXfR1CsgluvLkD1VLzZjyRAUVEN5NV/oc+Hml3MO7b/b6p3TZw+fZol1QjsDyFANVBUVISnnnqKTTK90RiFnJxcvPv7Thy9zJ9JZAvI9fbQtxuQma/cT+/o78tEJ/zdJ+EaHSUJj4W6EEgbGP23fG8ZgcjPXoFb2+ZXY0gKoA4TC7adxpaTV+QrghtBFjH1+6PXjAc/P1+EhoTIq/9Srx69T+oJUJuWLbgFLS8vDwkJCfJKYE8IAboBhYWFrN37ypUr5Ss3JiOvBH8fuYSyGwzmsjVUrElNRc8nK8wWkjYAt5ZNEP7eUwi4d7LprjYTcGvXHJGfvgTfm4ahnouyYXxk4b36206k5KgXk6iNkJWYmFkgr4zTqmWrG47NJhdcPRV79IUEB3EXpBJkBQnsDyFA1UDWzuLFizF//nz5Ss2Q8JxNzJZuaG0WctL8nmV7+AK61+LSqD5C33gMnj07yVesi1NIILO8fG4aKomfMquLxHb2iv2sXkhQPeR6oxgQL+3atpGfVY+a6fXUcSEiPExeGUcIkH0iBKgaKKhJWTVkBfGiM5Sx1iBao0g65S7afpp1uFYCJQdEfv4y3FpFS58S9U62SnHw8YLfHRPgOaiX4g3ur/0XsPdskrwSXA8JEBXz8tKuTc0CpGYxqjsJUJgQoNqOEKDroEQDSutU6lMO8nGHqwY7NF9IycF6he1qyPKheA8VlNoacutQTVHAzDvgNaQ3cwvyQiPD/zpwkbvPWV2DBg3Sg5c2RgSonopNSa8KUKi8Ms65c+e4RjgItIUQoGvIysrCY489hhMnTshX+HB3cUK3puGaHBHw0+aTyMjjb1Xi4OGGgBkT4N6hpXzFxsiC4+DuCl/JEnJr04yteaDg+ppDl5AmYkHVcik1jzsBISQ4GKGh1ScgVOGgogvO1dUV4eFhihIRMjMz5ZXAXhCFqDJUXEpJBzRfROlJqkfzCPz+zDgE+/C1kbcWNOa6w5M/KeqT5jN6AMLeetyqCQc1UVlWjtL03KvdFCRKDhxHxic/oCKf33X0/rT+eGxsF3klqOKdpXvx/p/75FXNUPbblFsny6sbo1Y3BOLU6TPYvf/ADTNQryUsLAzLly9H586d5SsCe0AIkMzq1asxa9YsxaeoxiG+WPTkWFZ9rzXeWroHs//cL6+MQ3GfBvPfg3N4sHzF9lRK4lma/v/Ze9TOJ/u731Cwdqt8xTjNwv1xcM6dmpg2qyWmf7YWf+47L6/sGz8/P5Y0NHr0aPmKwB4Qd6QExXuefPJJxeJDo6K/uH+oJsUnv1iPtYcVtNtxcEDQo9M1JT5X+e/5iGqQ/KZNhGMgf6HqxdRc1vdO8F/OKWhCqnVKS0uRnq7tWjzB/1LnBYh8x2T5JCUp26Ao3vPE+K7o17q+fEVbHLqUipRs/tgHxXw8uvNXn1uLymo6XDv6esN30ijp08sXH6Aq+V+3U5NY+YIA5RUVuFSLWhaRC516NQrsizotQPSh/e6777B79275Cj+T+7TAPYPbaWKc9vXQhns8Nh15khXEA8V7vAZ0h6Ofj3xFO1TewP/v0bMTcxnyQkPXKCtOcBXqfm1KSyatQnEisoCqWmUJ7IM6LUDHjx/H3LlzFY/07StZPbPvHAB/Lzf5irag+o6zSdnc46od/bzZKAU2PkFjUAyoOhwDfOHWvpW8Mg6JsZK5N7Wdc9Lno7ZBAkRd6wX2Q50VIEq5njlzpiKznRw+LSMD8PUDw+Dr4Xr1ogbJLyllAsSLS8MIuDZvLK+0RcUNOjWT1UYp2Q7ufIcApa9JbaZCspBPxtc+dxUJEHk1BPZDnRQgGuH7yiuv4OzZs/IVPnw9XfHSpF4s803LFOkMikYSeA1W3mXAGlSyIXY3TsF1adYIDl6e8qpm9JJVSK8Jr1VYWyHxoRlAi3dqf2qvUugwKQTIvqiTArR27VqsWLFCXvFz9+B2GNctGg42bE3DA3W8zinivxE9e9mm15sxKnSl8rPqcQoLZq44Hij/ICW3sM53RYhJyMIT87fgQkrtm5mUlpYmXHB2Rp0ToMTERHz11Vcs+40XKsbu3TISr03pDRcVZ+BYCmq/wzsfxTHADy6NtZnJZ0yAyGpzbdVUXhknLacYekPdbNdCls+pK5m4ZfZKFv+pjfNzaEYXjVAR2A91SoDopiPxOXjwoHyFjxYRgfj0nsF2IT7ERUmAeHGNbnBVYTVGhSQUlRxioaRfXXp+cZ20gKrcblR4SgPoaivUDDg+3vRpvwLrU6c6IaxatQozZsxQZKZ7ujnjwzsHYvrANnDUuOutikd/2IwfN/H1s/ObPBKhrzwsr7RDeWEJyiTBMFa8oz99HinPvi+vaqZRiC/+fnUSGgZrL93cklDCwZ1f/I0LyfyWcRVU+OvapjmcwoLkK8apLC1DhYop3vrjp1FRyGfZfPTRR3j4Ye19ngXVU2cEiE5G48aNY92ueSG5oXqfbx8cAVdn+7B+iLu//BtLd/PN/wm8fwqCHpkmr7RBpXSSLcsuQAXHWG1DQjKSZr4sr2om1M8Tm9+cgsah2k4iUQuyfCjmQ243Uy0fGocR/NxMuHduK18xTnmRHqXUAFah2N2I3LnzoT/JlzRBzYRnz54trwRap0644KjOhwpO4+KUjSXo2jQcH0wfaFfiQxSW8BfjOXi4y8+0A7neeE/QSn5/iv9QB4C6QJXb7c7PzXO7kQXk4O0lrzihERoqOgscA/jbLl25Ikax2xN1QoDI6lm4cKGiKmnq8/bB9P7SqVlbHa55UHTu1KBXsZzGR6h0eq6rVGW7KR7Dfh00idZRsoKUcHU0t3ofLIdAP/mZcUQMyL6o9QJEdQGvvvqqokajTo4OuGtwW3Rqwj8QS0t4u7vIz4xTUayt9jTlRTqWgMBLRTF/PI/69zk61O6PvNrZblctIL5aqyrq0WusqgUUID8zjrCA7ItaL0Bk+WzcuFFe8dG6QSDuHtLO7lxvVXi58c/yKc/mT0e3NCQ8lHyghIo8fvcSvZ9ar+EyB7Xcbtfi4OnO3W3iX+g1VtEHR6UCvFAqtpJR+gLbUqsFiDod0IA5JadAB+nGeX/aADQO5f/Qa40Ab/64SGl8svzMxkjvUUVRSY2dD6qjNClVfmYcymh0qsUWkFput2txCglULCbMBaeiztfz9EA9Vz6rnu51peP0Bbaj1t6NNB9k0aJFiI2Nla8Yh9KsHx/bBQPbNtBiaISbZuH84lkaJ92sGgjMl5foWfaUUgzx/GM0Qnw94Opin1ZtTVx1u2VYpMjUMYQ//fpfJMG6GgdSB+YG9OCPxYo4kP1QawXo5MmTWLJkCdc43yq6NwvHrFHabEujhKbhAdIewLcBlGXkSCJkWyuooqQUZXnKK9hpOqr+/GV5ZZwwP08WB6pNMLdbDBWZ/m2RIlOnYP74y7Wo2VuwnpMj6nnxCxB1OxHYB7VWgN5++21FQ+Z83F3wwPAOCPNXFnDVIkHebvDz5O/WXbT/mPzM+lToDJL4FNJOKl/hpywtC+WZ/O4mqgNys9O43o04fSUTj/9Ivd3Uc7tdi5OCybPX4qDmaA+ygDz5BSglJUV+Zl3I8qRGx/n5+SwORZ0ZBDVTKwWIOh6sX79eXvHRs0UExndvymJA9o6XJKZNFMSwCrfsZdaEtaGKeRIf6nptCqUXYlFRwGc5ubk4ITrMj2U41gbI8qEOB7d8uBLnLdjbzVFBCvR/cFLvdSZrSkm9V2oqf1xQKVTKQV23L126hHXr1uHll1/Grbfeih49eiAiIgKBgYEIDQ1FcHAwvL29Ub9+ffTp0wf33HMPvvjiC+zfv59l6lEvSku9Z/ZEreuEQB1xJ0+erKjfG9X8rHttMtpGmeDv1iBFegOenL8Fv+6Ika/UDLlZIr98DW6touUrFkb6xFXor7rdlCYdVFFZakD2D0tQsHYrHT3lqzcm2NcDvz45Fn1a8veO0yokPjtjEuWEA8vOOKr/8xw4mRAHKi8uRalKLkF6rwsWr0DJngPylZoZPXo0li9fLq/UgQSDJifv3LkThw8fxrlz55gQKRURR0lMGzVqhPbt26Nbt27o27cvOnbsCGdn/szV2kStsoDow7BmzRqcOnVKvsLHMxO6o00tER/Cw8UZLesHcp/2y3PyUbzvmLSzWcFlQOJTrENZjmT5mCg+RHlePnTHJIHl3ADIxUrDBGsD5Ha7OlLBMm63f6lXD47+JlpAKlqaNKm3ngd/KriaLjgaXPnhhx9i0KBBuPfee5kVQyJEw+9MsWAoJk3WE42Def3119lhedKkSdi8eXOddNnVKgGiD8XixYsVjdju1SICt/VrZddZb9dDXsQOjYK5p7aS+61wx0FJFPLlK5aBXG1lBUUwkNvNzJutRBJMQyK/q6Vr0zAEKkhP1yL/cbtJlo/SDZASU/z8+AXF0debdUIwBVXHu5MLzl167zhvUhrJYM5YBhICsm5+/vln5j4joThz5gxyc3NVFQly55HHZsOGDZg4cSJrlHzixIk6NdOoVgnQ33//rcj15uXmwjoeBPvY98ZUHV2iQ1E/kL+Fiu7UeRTtOSKvVEbaKCnN2pBdgPIC6XCg/OD4H6h4Nm+FshjfnQPbyM/skyq3252f/42kLOWFlg4ODsw19dBDD8lXjGNy/EdC1SQEiXrubqjnwJdAQhs7JQKYAm3+ZJ1MmzYNs2bNslpKN/3Of/zxB8aPH4/XXnuN1TDWhRhRrREg8tFS5hvV//BCp+KJPZrXisSD6/HzdMPIzk3klXHIz575+QKU56jbGaHSUC4JTz7KciWrR/pvmI10U+b+uhJlqRnyBeM0DfdHn1baHLrHCxWZPmlithtZPiNHjsRnn30Gd7IkODE1A44h3VKq1gJRNwbO1G7azJUMnKyCMtieeeYZNs6B3Gy2EACyiL7++mvceeed7Heo7dQKASKzmPy0Sny/1Jbljdv6sOr42sr0AW3g7sLvQinLyEbGZz+jUs8v4tVB7jXqaG3IKUBpRi5LtTYlzfp/kDaEksOnULz7kHzBOLT5kvXjrPKJ3FpUud1unr3CpCJT+vf37t0bn3zyCcvIUtIT0dHfvLEVarrhWBacAgFSYgHR/kF1g8OGDcP8+fNtnqFGcSL6fcaOHcveN1OtOXugVgjQ+fPnFWe93NG/NbpJFlBthube3N6vlbzio2DjHuT/vR2VCgp4CRIdltlWUMxm+ZRm5KGiWM9EQy3KsnOR98ffKC/gd0E1DvHFhB7N5JV9oZbbjTbVhg0bsmsU2+DFwc/MwX0qChBzwXFOJCYBongNL1u2bMF9992Ho0ePyle0Af07yKvzxhtvICfHwgknNsLuBYhOC5T5lpzMX80fFeSDh0d3lle1GyqupTRzXiqKipH1/e/Qn4m9Wp9TnX5I1yrLJMGRLJtySXAMWfkwSIJTll2I8vziq4Pk1D5BSj8vZ/5SFqvijSHR6X9U58ZoEOQtX7EvzMl2Y//2UaOY261KfAglAuRopgCp74Lj267KyspQUMCXAk57B9XoUPBfizEXikn9+OOPLB5VG5MT7F6AKPPtr7/+YqcFHqjf28SezerMVEz6d47q3IRtSLwYktKQ/OwHKDp6DvrkTJSmZEGfmo1S6aFPpod0LS1bEh5JdEhwdKUspdrczLYbUanTI/u731C0bR/5S+SrxqHeb+O7NYUL58lZK6iR7UZut48//pi53a6F7hdeKAvOHFR1wbnxJyGQABnriE0H19WrV2PmzJmKRNkW0EiZlStXsriQEsvOHrB7AaL8+ePHj8sr41A/sFv7tISrnW1KpkKZftMHtlGc6WdITkPm7G8lS+jiVUtIely1iCwjMjeC5hXlLl6NgvU75Cv8TOzZHD2aR8gr+4DEh3q7zfjCPLfbDz/88B/LpwpruuDYXCCVqOfmqsgCMiZAlDH7wgsvsPENauIkHXApvmyJQw+la8+ZM4clS9QW7FqAKOPtgw8+4LZ+iMm9W6Bdw2B5VTegWqdbejWXV/zoL8Qi8/OfoL9om+7CrNvBN4uQ/9cGxYkRUcE+eGVSTzir2BLGGlxMycFTP201aaTCtW43qra/HrKkqLCSF3MtIDYXSCXquUoCxCloJEA11QGR5fPggw/i8mX+RrY3gg52N3dvjDnTemLZU8Ow6dWx2Cw//n5hNL66ty8eGdkW7aICmPfFHMgSmjdvHpYtWyZfsX/suhUPvRmPP/64vDJOqK8HDn8yA/6eCgds1QLyivXo+9JvuJyq3ISv5+aGwIfugEefrnBQUJFuMhUVKI1NQNbXi5gFphQPVyd8P2uk3SUfUDfriR+sYCnXSqlyu12bcHA95L4JDw+XVzXjIFkc4V+8Aef6pifqqNmOh2KAWe98grJEvkzXZ599lgXvySKsgtxuZPlQLZQSIb4W8mQHebuja5NgTO3XFIPbRsKR072dlF2ExbsvYs3heMRnFqKk1LT+ix4eHti+fTvatm0rX7Ff7NYConx5utl4oRv0qZu61UnxIagrwuf3DkG4v7L5/kSlToesrxYi65uF0MVckK9ahvK8Asni2YiMD76F/qxy8aH2Q1P7tcbQDv9rAWgZsnzu/3q9SeJTXbZbdSiJ/1DrG3NjOKp2Q5DuXyUzgcgCIkvoWqrcbqaKD3XSoEnJPz0yHPNm9sewdvW5xYeIDPDEM+M6YOmTw/D2lG7o1TzUpOa45IIjgVXyfmoVuxUgSp1UYkK3iAjAuK5N5VXdpF/r+rhvWHuT/NOVpaUo2roXGe/OlYRoEcrS+OtJeKC6IUoySHvlI+QsWA4DTTo1wTZvFu7PDhpKxpLbmiKdAZ+vOYzdZ5TPsaGDVVWRaU3iQyiK/ygo/LwhKrrgCAcv/lEpFAO6VoAo240sH1PdbpQ5+83MYfjwzoEY2K4xPNxMP8iG+Lrjjn7N8O39/fHE6HaKavWq2Lt3L3777Tdm1dkzdilA9OGigJyxQGMV5Hsd07UJIhS0pqmNUDHmgyM6YlC7KLZxKaaikjUuLVi9GcmPvYmc+b+j9FI8ynPzWT85RVRWsgQDQ0o6CjftRspTbyPjw++kn3fF5I4JQT7u+PL+oWgYbGb9ihUhjV196CIWbY9BucJi3Sq3W1WRqTGUFKFSzMVsC4g+YmrGgRQIEKVhkwBVZbtRzMcUy4cslD6tIrHt3dulPSSaiQW97i4uHpLlabpA06sSKgnR02M74JM7eyHYR5mgUTzol19+YaMd7Bm7FCB60bdt2yavjBPk4yFZP9F2Ww2vJjSo7qsHhmJEx0ZmNWCtKChE3vJ/kPLMe8h472tWo1OwbhtKjp6GIS6JiVJFie5qera+lM3tofY5+piLKNq+H7mLVyHr85+Q9uKHyPx0PhMec4gM9GbiQwkX9sSB8yl4adEOlCrsDG4s2606lFhAV7POzM/kMumgcwOUWEDkpqqK+bz44osmiQ95Cib1aoEFj45m8eNrcZBeGxdX83tI0sszsXtjfHVvP7SIUNZ7j/rFkRVkz9hlEsKbb76J2bNnc9dHTOnbEvMeGlFrhpGpQVx6Hh78dgOrtFeLei7ObONykL7CWXpOAWB60PtUUXFVjAylVwWpRL0uCeRue29af8wY1Nau3uPcIj1rsbNfEiEl0KZO2W6ff/45l+VTxUcffYRXX31VXtWMe6e2CH5+Jhx8TPcaULGyPiOPfVWD4i27UPD7SnlVM9TFeurUqayxp6kxH+oT+dl9g1nSwY3Q6QphKJU+y2ZSIVm/G04k4skFe5AjfS548fX1ZeNngoLsc5yM3e3I1KeJst94xYdy8p+5qbsQn+toFOKLOTMGokuTUNVOqeQ6q8gvRFlmDspS0lkcx5CQDENiCqsrKkvPZC48mgeklvhQcsVLk3qx4LA9vce04SzdfRYn4pQVQSp1u12Lkgad9dxcuOtuboj0sVKzG4ISC+jYsWMsQ9ZUy4fE58dHR9YoPoSLi7v0npj/uXOQXqeRHRuwmJCSzzG9p9999528sj/sbldesGCBouIxMqFbNwiUV4JroXqoBY+PwU3dm5pdo2ALKNbz8d2D8NjYLnbX0Tw5pxC/bD2tOBV34MCBitxu16KkqWU9V0mArklhNh313pd6CsZyV5cFxwOJDxWqk+XDk6xD4uPkJL1WKnHP4JYY30XZe0tdErTezeFG2JUAUR3Dr7/+Kq+M4+HqjAdGdJBXguqgVj2f3jMY0wfal/uqYYgP5j4wVNosWqi4xVmP5XvP4US8sjTa7t27M7dbdUWmPCixgKgOqJ65MSB6Y9S0gCgzz8KM6RKNd6f1M2r5VEEWqRO5m1U6AFGc+smx7dE4hL8IOCEhgY0Lt0fsSoCo+ErJgChKO44ONX2oVl2BeqZ9JonQm7f1Zc+1bExQFtKwjo2w+c3bMLhdQ8lyszsjHvklpfhizRFFWW+hoaEsftOsmenFtYosIEpCMPu1rafaxkywhqQWQonb7XocnSjeaX7CRhWNgrwxulMUc8vxQAcLSsqyx2aldnP3UtohDWji7XLr5uyIoe0bwteTbyx1XYda1jwxrgsWPjEGwzs05nI/WBtyub0yuRcWPDYa4f788QCtMW/DMaTm8o+Mpoy3p556CoMGDZKvmIaSRpbkgjM7Dfvf/1MHNpbbAih1u12PJLNwcVZvn6F7cVTHKAQp6GJPAmSPbji7ESAKJpIA8c5kD5ZO8sM6NLK72ICt6dOyPn54eCRzb5E1pAXILUGutlUv3YKHR3ViiQf2SnpeMZbsPCuv+KAxzdS12dEMlxgl7fDWzZEJXM/FhX01C/rralpAFmoDpdTtVh1OzpJgq/hv7dgoEG2jAuSVcS5evGiXbji7EaCYmBiWbshLv9YN0CzCjJHCdRS6hwK83djAvn2zp+Peoe1RP9Db6vEh+j1IaKib9e/PjGei2DTcTzodas8yU8K+88lIzubvck2ut5dffhmu1IzTDMiDwDuuntLnHVxV6iShpgCRKKrocjXH7XY9lIzgrKIVRPfb9H7NuV8+qnmi5BR764xgNwJEfa54rR/6YD02pm4MnLMkoX4eLEHhj+duwou39ET3ZuFWcc2R4E0b0AbfPDgcq1++GSM6NbbLWM/1ULHp3rPJKCjhEwKyeKZMmYKmTc1vIUXxAe7NiWIPzmoIEMWA5KdqIP0wtRIRzHW7VYeTJEBqWkGD20YgWsHcMmrPo+SQrgXs4q5OSkrCunXr5JVxhnZoiDZR9lmYpTUoPZvStZ+d0B1Lnh6Hv1+dhJkjOiJM5RgMnfh6StbOZ/cOxvrXJ7P0akoP91TrJK4Bcgp1zAKimT88BAQEMPebmxl9x6ooKSlRIEAOrKjYbGgvVlWBpB+nkgCp4Xa7HorVOToq7+t2I6iG8c7+/EkndEBftGiRvLIP7EKAFi5cyFwIPNCGedfgdiL2ozL0uob6ebJWN59I4nDys7uZUJBl1Ld1fVbYSqLk5+nG0t/p5iFRoUwesl7olOnm4gRvdxcE+3iwMdktIwMwqXcLzH1gGI5+PAOb35qC+4d1YD+rNglPFVkFOsQk8Pdj69KlC3r27CmvzEOJADEXnBoCJKGmRUDUMzMRgT6HarndrofccI6O6n5uh3VowHrG8UI9MtUesmdJNN+KhzJ3qNsv79TTVvUD8deLE1lvMIF1MJRXsOB6Wk4Ry+7KKiiBrrQMJYYylJZVsJb1JD4kShTXIdceTaYlQSNBqiss2nYaM7/dIK+Ms3TpUowbN05emQe5ZiZMmMC8CcZw8HRH0BP3sPlP5lKWXwKD9NlQi+wP58JwKU5eKaPK7aa25XMt5WUGSewLUanS5OBCnQHPLdqHPw/Eyldqxs/Pj4UrqE+gPaB5C+jo0aNITOTvV9anZSQCFY6fFpgHZalFBnihc3QoRndpwkaA3z+8Ax4b0wXP3NQNT47viodGdsQ9Q9qxyax9W9VH03D/OiU+xJZT/A1XIyIiMHz4cHllPuRBsLoLjqB4kkpGkP7YKZQlJMsr5VjC7XY9Dk5OV3sgqoSnmzN6Ng9lZSU8UK3Xvn37TOoCYQs0LUDk0zx06BB3BTdtaH1bR0pvlnp+WIFALfac5d886QRrbubbtShJQqANlGWcqYaZCiTtAyQ++QuXsblUSrGk2+16qCbIWcXWPPTKdYsOQQBnTRDtmZSMkJOjfKS7LdC0AFHR6cGDB7nVnOpWejWPlFeCug7VvqTkFGLj8TjW+POfI7GIz+DvBqAmNBI9OZt/PPXgwYPlZ+pgMBi4G/hS4kA9lQ5xFAMy1wDSn4hBwR+rUVHIX7xbRZXbTc1sN2M4u0gHBxVjX03DfNAqkr+jC4Ur7GVOkKYFiIJpZAHxMqBNA0TW8aFzgv9nwdbTGPfun7jny3V49PvNuO/rfzDqrWV4Z9leFOlNG3pnKjRym7f1DrXYb9WqlbxSB6oB4i1jYLU2Tip5Eczch6ssn/IM00YqWMPtdj2sQamKyQjk4r65R2N5ZRw6uG/cuFFeaRtNC9CBAweQksI3K4Wy3ij2oHbWjaWgVFwKMKbmFLHZPKcTMrHuyGUs2n4aX607gtkr9uODP/ezUc3UNfmvAxdxLDYdl9NyWSEjnaiVTtCsK+gMZXh9yW48PG8jziRmIbtQJ73WpSwNmiygD1ccwIu/bOeux1GD85IA8RIWFgZPT3XT3MkC4hYgslrUshbofjTlliS32/HTTHxMtXys5XarDmdndeObozs1hK8H/89csWIF//ttQzSdBXfLLbewiYY8UPbb/g+ns3RhrUKik5BRgOPx6TgrbYxnk7LZyThFEqGMvGKWTVYTJLKUYEEZZE1CfdEiMgAtIwPRvlEwey5Sz6+OGVqx7zwe+X4TE+kbQU1NqeaICl6twZdrj+CFhdvlVc3069ePdX0PDg6Wr5jPX3/9xdr58MRTnYIDEPr203COMn+6bLkk8gbpwFSp8LBElg+53UyxfKyR7WaMiopyFBflq5YNR1A23C87zsurmqGapMOHD6Nly5byFW2iWQuI5tdv2bJFXhnn5p7NNSs+5HvfdSYRs77biLHvLseD32zAO8v24fddZ3H4UhqzaIyJD0ECRkJ1Mj6DWURzVh7EYz9sxk3vr2CupkXbY1BsZdeS1iBLZ82hS8ivQXwImsPz8V+HmGBZgwKaAMuJj4+PdIJWt55EkQuODjI2dMHpj9uf2+16rtYEqZsMNbEHdQThe0HpvaZDh9bRrADRi8fbXpxqTEZ34feRWgMSizRJLJbuPocezy3CiDeXYeG208yFdtV9Zv7JiDWYlDbcpKwCbDt1BTO/WY92T/yEL9YcRmx6Hmv9UtcokF6PM0lZ4NGV88nZSMi0TlJCQQn/wYCy3+gEqybKkxDUccFddYlzqlCV2+0X+3S7XQv9u9UWoIZBXogO9ZFXxlm7di13/z9boUkBohtFSeuddlFBCPfXTvJBoiQI5HKZ/tlaJgoU37EWFFN6+deduOm9P/HG77uZtcS98dQCyiVLskjHv9mn5Snf6ExByWHAiWpJVHanKk1CqKeWBUTiw/lP0Z88g4Jlq+wm280YDo6Oqr6PVMTdviH/dGcqOj57VlnndWujSQGixIMzZ87IK+N0jg6Dn4LZGZZk/dFY3PbxaryxZDd2n0m0iRVC1tel1FwmglOk3+XT1YcUj362X+opioVZ63XxcON3qSkSC06UJCGwTdPKLjiW7fbLUrt2u10PWUDkilMLDxcnJkAuTnw/k7rIUCG/ltGkAJ0+fZp7eBZVCneNDoWrDU89ZGGQK+eBr9fj5tkrcfRymibcXxUVlYhPz8Orv+3CxA9W4ExCFlesyZ4hF7mS0RHUKsga+Cjo+kCuZ7UFSJkFpGIWnDGk38mes91qgsSHrCC1oHNB+6gA7s9ScXExa8FEhw+tojkBos2cXjTeyaf+nm7oIllAtmTTiXhWa7JkF7/VZm12xiQyEfph43Gr18BYEzq9KxGgEiu9FkraDtHwRbV991TMzS1A0mtYT62N04g1yopMa5Hb7XqcVOyKQLSO9EeIguak5ElSMord2mhOgIqKihSpdoMgHzaozBaUSdbE+8v34d65/2DPuWTN1+UkZBXg9cW78dSPW1DK2xfMzqAsId6+WQTVCFkD6v7NS2pqKuterSaK6oDIb6ZAxE3FHotMleLkpG42o4+HC3o3D5VXxqFBnkKAFEAvlpKhSkPaR0n3ivX/GRTo/nDFfny08iDr/mwvkPVD6dpT5qxGUhZ17ZW/UUsg68fLjf/UmWml965FBP945bS0NG4XNC9kUSnKglPrniID6HojiNxusvjUNrfb9VgiHXtou/ryM+NQPP3ChQvySntoToDo5qP55rwM79hIfmY98ktKWYbZZ6sPs6p7e2TziXg89sMmxGXwNXq1F+gwQnFBXtJz1RsVUBNRwT6s+JUHEos9e/bIK/Mh4VGShl2PrB8jrjNeqvsp9tbbzVzUdsN1axoMb3f+z7iW2/JoToB2797Ngmc8hPt7okOjEHllHShr6tmft2LeBvVjKZR+GxQUhIZRUWgeHY3mTZuiccOGCAsNhZuKnZEJqkOiJp33f7UehVZsSWNpqG+WknjLFSs1J6XNsrkCK2jz5s3yM/Mh4eEexSChagLCdUJWF9xu1+OoshuOhjV2j+bf92hInVbRnADt2LFDfmacwe0bKgo4mwtZO5+sOohle86x+I85uLi4wNfHBy2aNcPwwYNx34wZeGLWLNx9xx24deJE3DR2LG4aMwaTJkzA9NtuwyMzZ+Kh++7DuFGj0K5NGwQGBLBRzebUGVDMau+5JMz44m+ruaIsDW30vK3riSuZeSxt3RoMbNtAfmacTZs2IT09XV6ZBwmQoqw61WqAqpA+o3XI7XY9LBtO5TDBoDb8bZLOnz+P+Ph4eaUtNCVAlKmzf/9+eWUca7vfFu84g6/XHYXeYHoA38PdHa1btmSic/ukSRg/ejQ6tGsHfz+/GsWEvufl6YmWzZtj5NChuH3yZIwePhxdO3VCgPR3zWHLySv4YPl+1hzV3nFycmD98nhrgahDQa6VEhEGto3i/r3IDffbb7/JK/NRIkDqFaH+P3XN7XYtdO/Wc1D39+7eNATuLvw/c9euXfIzbaEpASKlzsjIkFc1Eyidgto3tJ777cCFFLz0607kFvH39LoWR0dHtJcslym33IJhgwahVYsW8PY2fWy4u2T9RDdujH69e2PyzTejf58+zCIyBapZWrD1JP4+fEm+Yr/Q9k4nZN6NilyqyTnKN0VToGxNGkfOy+LFi1UZLEYWEG/8h1BrFhBDekP0x07WObfbtZAAOaosQMHSIatxCH9bHjVjimqiKQGi+A/vjULdn/081Y2L3AhqrfPIvE1GG1xWB5newUFBmDh2LEZIlktQYCBzv6kFCZuPJGQ9unbFFEmIGkVFwcmEGo5ifRmemL8FMYmmbRJaItTPE26cp0MSIHp/rUGAlzs6N+FPoY2Li2MBZCXiUR1KXXCq1QBJ/82SfceQt2BpnXO7XY8DEyA+65cHSkJoFu4rr4xDnbG1WJCqKQFSYiZGh/nBS0G2k6nQBvXVuqOscaVSqKNxp/btcctNN6FxI8u7C0OCg1ncqE+vXkyUlEJNUp+URIj6ydkzkQFe3Bln1D3cWg1JqYK9Z4tIOHO2UqFi7OXLl6tSx6EoBqRSXLX4wHFkz/8dFfmF8hV+7N3tdj0kQObEa6+HPt+Ng725fyZZ0lqckqoZASosLOSu/6FiwyahftKbYHkBuiAJz687YhS3sCHLZ/CAAcxF5u1lvUapZF1RXIj+2x4e/O6eKg5eTMHyveelDcs6gXlLUD/Im/uzUWoox+W0PKu0KHKQPre9WkSw7h08kOVCGUxKxpJUB/0cRVaUCgHz4n1HkfXZjyhLMS2Rwt7dbtejtgDRHtgoRPqccxZd0/566ZL2XOyaEaDLly9zF995uDozC0jF97NaKNnglcW7kJWvLEOMEg3GjhzJYj5qz3XhgcSPXHFD+vdXLH70b164/TSuWMkqsARBPh4I8eUTX9qWLyTnsLEW1oBccM0j/OWVcagv3EsvvcQdG70RigTInPtKsrSK9x5FpiQ+5SZaPrXF7XYtVNirpgARjYN94OnGZ+lThxkl9ZXWQjMCRP5uepF4oEp3EiBLs3T3WWw5rix9kWa5UEJAs+ho+YptIBGizLrePXrAz5ffV0ycupLBZhfZK3Sbd2vK3x/wQookQArm9ZiDq3RifWp8N0Udu+neePrpp03ujqA0BmTOya54/3Fk/7BEuN2qQe2OCGQB0WGcB71ej9jYWNV7DJqLZgQoISGBu/+Vl7szmlhYgHIKdfj6n6Ncg82upU/PnizNWu28f6XQaYsegf7+6NiuHRNGXuiwTOnmqbn2Gwvq04q/XUlceh6Ssq2TiEAMad8QvVtGyis+1qxZgwULFrBSBaUoFSBTT+rFe48g83PhdrsRDioLULCPGyID+N3sSvZYa6EJAaKbioYn8apzy8hARe3tlUIb8IbjcYhN429TQzdtG0l4unTsyDLTbE3VJkJfI8PD0bJpU0Wnbmo39OWaI1Yr0lSb3i0juIuUqah4w7E4eWV56Pd6+qZubJIvL7RxfPDBB/jnn3+UWTMyiv6O0sNTldvt859Mtnxqo9vtetS2gOh+7tI4WF4ZJzExUQhQddCLQi8OLz2ah8vPLAPFA/45EquoRQ21y+nbq5e80h5klUXV57cKiL8OXECcAhHWElQn1qZBkLwyztpDl6wqtvQZHt25iSJrg1xws2bNwsqVKxW11lGchKDgdyKKJPERbjfjXE1EUHfLVTIhlfZY3jZn1sIuBcjS/d+oLc2umERu9xslGnRo29aswlK1uf53J5dg29at4akgMy4trxi7zybJK/tjZOfG8jPjnEnMwukr1hud7uPhiruGtFXUNoigZIQnn3wSv//+uyIRslQMqHDDDmR98ZNwu3GitnekbQP+/oL02cnOVl5OYkk0IUCkyrwCRCfGtlH8qm8KO04nIDmH/zQXGhzMWuQoOc1anGpOvJQRR81NeX9PqpHZey7ZamOr1YZaNfG64agv3u+7rTc/n96BQW2jMLZbtJL9nkE94p544gn88MMPXDVClogBVRQVI2/pWmR9+xsqCup2kakS6jmonIgQ7AVvznpI+gwoGXVjDTQhQHQT0RgGHsL8PBDs6ymvLIOSDDC6WXt062aTdOuaoA/b9W4XsoLIDUdtfHjZfz7ZruYdXUv9QG9F2ZIbj8XBWgPqCPLhv3lbH/RuoSwhgaAi1WeeeYZZQ8eOHTMqMKq54KSfU3pBep2+XojcxatQqVPeHaQuud2uR+3ZZbT/tG7An9Z/4sQJ+Zk20IQAUQ843gSENlHBKja0+F/I7XTwYqq8Mk79iAhWc6M1qhMgglKyw8OUpCjnIjHTehliakIFn0pa3yRlF+LA+RR5ZR2CfTwwZ8YgRAXx9/WqgpJ3lixZgttuuw1ff/11jS45Rdb5DcSqUl+KvOX/IP3duSjcto+tTaGuud2uRe1MOKJtfX43nBCgajh9mt/iaBvFH1g2he2nrnCPWqCbun27djZPua4O2oyqEyD6nZs24Q9+09ygHTEJ8sq+oMF0PZpFsNobHnKLdNgqvf/UnNWatG0YhCfGdVE0SK8KOmhQq/1nn30WvXv3ZgkK5E24XoyUCNB/PjfSvVCek4fiPYeR8vQ7yPlxKcrSs6Q/JH9fAXXV7XYt9D4oeS94UBIHoumoiqxhC6OJnVNJiwhLC9DWk/ybLfVbi1RgTVgTOh3f6INGtUFKilNpXIO90q1ZGGsCygO9XNtPJyBTYecLc6G2KncMaI1ZIztJhxnTNyc63d59993MInrvvfdYI1OTumlLL0R5bj5KDp9Ezq8rkf72l8h4/xuUXjb9IFKX3W7XIsmPJEDqbrvNI3ylnykvjJCZmalKb0G10IQAURseHuhGbVXfcgkI1A/saCxfLIoIDQkxeQSCJSHhKTPijmkQyR93OHQxlQXp7ZHWDQIVxYFiErJsYvFRd4/nb+6Bx8Z0McvFTK179u3bh9mzZ+Ouu+5C//792dcjR47If8I4uqMxSH32fWR8OA95S9dAf/YSKhVk3FVHXXa7/QeygFT2mNBUAG/p88MDWczUEUEr2FyAaLOkViM8BEgfXh8PyxWgZuQVo4Cz9oc28YCAAFVHK6gFfcgMRmJqVLfE6wqgLLi4DPusB6LT9l2D28or45DL8Yu1h63uhiOow/FzE7sza4i3Y/aNIBccpdxS/6/Vq1cr8v2X5+XDkJSKioJC6cNk3sGD3J8396rbbrfrcVDZAqLXOMiH/yCspaakNhcgMgd5c9PpA+xqQfOdWs/oDXwpx05OTkanmNoKcr/VZAERlAmnJBvuXKK26geUMK5bNMuI4+V4bAZWH7TNTerr4Yq3bu+LB4Z1sOq4eUtAgnrf0Pb44t4hddrtdi20X6i9Z7jSFGAv/lZbvB4na2DzTziZg7xBsUBvN7hwBpRNISO/BDrOcdskQDQiW4uwdhtGXlMqiHN35z+RXko1rRGmFiD31vSBreUVH5+uOsT6AdoCGqj3xm198O4d/eCm5nRSK0J77JPju+K1Kb3hr7DYttajsgVE4h4k7Y28aKkrtiYEiBdqr2LJk1SJ3sAd66Cpo0q6ClgLcr/x9HuiegQlFpCtNmO1mNK3FfeIBuJCSjb+PnyZ+3CkNtTl+MERHfH5fYMRFaw8RdtW0OmerM15s0bg5Um9mPgL/gvLmlXRCiIXXKAP/2FSWEDXoOTFIAGypAtOV1rGNnAe6EZzlqwgrUGDp3g2TQqEKmkLUmCleTmWIsLfi3VG4L3vC3UGLNl11qqFqddDLrg7+rfGz4+OZm2FtO6So5d2hPQa//ToKEzp0+rqRcH/wDLh5Odq4OLkgCAvV+6fmZWVpZmxDDb/RFOLcF4s7YLTlZVzW0BsA9eYAFHsh7KgeCABVSRAxcor3rUE1diM7NQY3u78vvKdZxKw/qhtM4bofaLGpfMeGoEPpg+AH+c0VWsTJJ3AP5wxEN/PGslGTVDGqqB6rsaA1Ht9qKMGZcI5ch5QSHy0koptcwFKTeXrOuAsvbiBPh6KRgoohX42948nK8NG7pkbQa437gaVCn93LRbbKmVw+4aKppEayirw+pLdmmhFRNb/QyM7Yse7t2N0lyYsWcGCtwIXtJHSxjesQyOsfvkWzBrVCQEKYhF1lasCpC40nob2SB4MBoMQoCqoMIoHZydHBFj49EfuPd4USWO1NtaGrB8SIN6YBf25cunv8OJtwflL1oI2bZrDo+QQk5xdiNcX79ZMQ1aqafrl8TH49sHhmD6wLRs/bguoi/ft/VpJv8cI/P7MeLRvyD+Xps4jff7U1iBvd2c4OfL9UCFAMhRv4R0zTOpu6U2QBoTxug7od9fSeFtqTkkixAvNvjEo+POWrL+yJqM6N0H/Ng3kFR8r9p+36sA6Y1B68/juTfHxXQOx5uWb8eCIDkxcrUGwrwezxP55fTI+vWcwS3HnbXUkuIraLjjCRxIgJRZQXp426vpsKkAUMOfdxCkAa0qvLCV4ST+f9xRB1k+RRoY70TgLnsy3a6mQfv8SzngREcjZzkbr0E364i09FGVn5Rbp8cPG40jT2IhyypRrJ1keH989GBe/vh8/PjKSjfumrDlKfTY3aYEOY3TwiAz0Rt9WkfjqgWE4/sld+OiuQWzYH90vAuWo3YqHoMM57/stLCAZEiDeUzvdDJYWIErTdeWsu6Dfu0D6/W2NXq9n1o9SSECViFbzSP6Gh1qHBhqOl07uSlxx208nYu66o1oL+/2Lh3RvUKr58uduwt+vTsL8h0fi1Vt7Y9qA1iz2RS2JWBLPDbJI6TqbIhsVhKHSn58+oA37+18/MBx/vTgRa16ZxDpK+Hpax9Kq7dRTOUmDXHC8FhDFiU3ZMyxBPWkTstktde7cOYwdO5ZrGF1EgBdWvDABbaMs52umVjyDX/sdl9P43ILdunRB/969bRagpw8SNZs0xRWYkpqKrbt2cceMzksn7EjpPagtUNPRGZ+vZcXHvJCL9odZIzCxZ3P5irYhNyuVFlD8igqs6Tl1etdLz6nlVImhDO7OjpKouLHNi07Q9G+ka+yr9LBEwFwAlBSTy1w9F356XgnGffgP4jOMC4uHhwc+++wzTJ8+Xb5iO+zGAmIuOFfLxiGomMtPQUsLW+bTV8XPTP3vJ6elcYsPxReojqY20a91fYzuEi2v+KAN/KVFO3EiPkOzltC1kIVHbjqybOjwQAkMLSRLtn2jYPRpFcksnT6t6rMO83Sdvk9/jnou0t8T4mM51H5tA6R9y48zTkv9KwMDLTtVmhebChDFLnjThp0kK8PSLji6YXs1j5BXxklLT2f/BmtDok3iQ+43UyDxSkxKklfGoc2qtu1F9F6Ti0lpd/XErAK8/fseZBZoI/4nsFNUvqHogD6uS0N5VTMRERHo2LGjvLItNhUgOr3zdh6g5ABrBD0Ht+N7EwlKQohTUEirBiTYuXl53AWn1ZEqCWdhEX9AfUh77U18VYNwf0+8P60/O+3zQm6tjcfj8P7y/fIVgUA5ljjP3TWwBdpyjOemUe7h4eHyyrbYVIAoG4NXgOjEaskuCFVQto+StNJjJ05YpR6I3GX0ejG3n4mWD0Gv9wUFzQjptejVor68qn1Q1f6tfVooGgRHc6O+W3+MNSyleIpAoBgLZMLRAf3b+/ujU6Og/8mII5cfjY959913cfvtt2vGvWo3AkTNM+lhabzcXTC0QyN5ZZys7GycOXdOXlkGeo2KJIuF/ltKan2qI0MSsEzO8RcEpduGKmjiaW+QW/ehkZ3QLIy/Q0IVc1YewJJdZ5ggCQRKsJQARIf54pv7+uG58R0wsmMDdI0OxYB+fXD//ffjp59+wiOPPCL/SW1gUwFSsplSwz1rafadA9so+m8dPnpUkUtLCSTSlOlGaZNUu2MO5L67kpAAPWfiAr0GPVtE1Pr2Km0aBOL96f0VpWUTecV6vLFkN7adst+R5QLbYKm9jH5uoxBvPDKiLT6/qw8WPDYCv3w3Fx988AGGDx+uuQGadmMBuVhxLgrViTQN5z8RZ0sCEXP2LIsPqAG521idkSQ61KqIkg14M9ZqgmJH8ZIA8f4sbw8X9JYEqLYPE6PT6IhOjfH4uC7ctRRVpOcVY9pna7EzJoFNUxUIuLCwC4xcyr7S/Rvs44agQH9Fs7+sid0IkCXHMFwPdfYd0KYB94mYLIuTp0+z+Iw5kDCwwlJ5SiwJkBrCQ5DVc+T4cW7rh6C5LmQB1RWeGNeVjT1QEg8iCktKcf/X69kUVaqzEQg0g/RRVmsPsQQ2d8HxvjjW7DdFBXis47CCqm+ygjZt3cqdVn4tJMRV1g6528idZ26s51pI5I9K4pPO2fi1CqqGD6tl9T81QfUyr07ujQaBygfAJWQW4Omft2LTiXj5ikCgAaT91cLGllnYXIB4LSBnJ+v+qmQBUWxACYnJyUyEqMUN/dtIjK5/0HVKP6cUbqrlSUtLQ0ZGBhMgJRYhL+QWvBQbi3iObhPXQinK9w1rbzFftRahfyu1ovnoroHwMaG5Z2pOEe74dDX+2HNeM92zBdqkLt1XNWFTASLfO282CG+jPbWgViTPTOiuWPgoFrRj926kSsJCFg255ehBz+lBYkNf8yTxUVKIaypUcHrqzBlFFhW91s9N7KGoPqY2QdbvB9P6M4tIKbrScjzy/UaWom3vU2QFlsRKEiQdQIUL7gbQRE5eAaLhYNZmcLsoTO3XWl7xQTVBMefO4cTp0/9aPNdaQ9b8MMRduYIDhw+jWGGn7N4tInFT96byqm5yW79WmDmig0kJGNRn7ZNVB/Hk/C0o1hvkqwLBNdSzzj5wdb/Rrr1lRwJk/YI/qjsiK6hRiK98hQ8SnNOS1XHo6FGT2+WYA4ng+UuXmPgoSTogaEzBjEFtEOrnKV+pm1DMkZISbu7Z3KT6M3LBLd55BqPf/gMn4zO4R70L6giVVhIF5mWSn2sQmwqQkxN/t91SGwgQ0SDQC/cObc9cckq5cPky9h46xApIrQU1eKWEg2MnTyoaOFfF8I6NMKpLE3lVt/F0dcYn9wxigmxqDPLQpVTc8+U6LNx2WnRNEPxLpfQ/a1BPOjxp2ANnPxaQ3gYuOIJGgd87tB36tIyUr/BDCQXJKSnYvns3c8lRkoGloP8WFZluk/5bJHym/LeahPmxALy1pmvaA/RavHl7X0zp01JxejZBN39MYhae+2UbZn6zHik5tp8hJag71JO2eN491hYIFxwHtAl9PXOYZA15y1f4IR8sTR49GRODLTt2MEHSqVRYSpRKQkMW1q79+9kjLz/fpJ9NAfdvZw6v86636gjwcsPbU/thZKfGJreDKtIZsGzPOUx4fwU2n4hna0EdxlpmCfu8aleAHF955ZU35OdW58KFC1izZg1XnIQ2yPuHdZBX1ofScmkq6J6zScgvNi27iZIByEohwSBRoo+gq6ur4k2Nkhmoq8GVxESclV5Dsq4opdtUyNX07MTuuKl7M6tnG9oL1DNuWIdGbDx3zJVMk2M61DnhrwMXkZRdiDB/Tyb4SlsACeyf8vIylJdZ/hBSz8kVLs36oJ6rNg+WNheg1atXc40WoCFZ9w1tb9ObtWGwDytO3RGTaHJMirYtqgHKyMxEUnIyy1TLysm5miYtnYqcnZ2lQ8t/RYBqefILC9nfuXj5Mk6eOcPcbPT3yeIxt3Zo5oiOePqmbqwAV3Bj6PXp1SISRXoDjsWlS6+7aSJEzUspMWH90VjkFOnQvWk4c/UK6g4kPuXllhcgB2d3ODfVrgDZdCT3pk2bMGPGDNZ2xhjNIvyx+707LD6UzhgkBh+u2I+PVh60WLEhJWeQEJF7koSJ4jmWSN+mFONJvZvju4dGiFO4AiiZ4J1lezBv4wnWhsdcKMvylUm9MKh9FOs8rmWfvUAd9PpilOqVlUeYgqNXIDyGPQUHryD5irawqb/F09OTbbY8lJdXolADNRW0UT9zU3e8dmtvBFtoTAGJDnVToEJV6ppgCfGhNOM7B7XB7DsHCPFRCL12b97WF7OnD0CUZBWbS1x6Hh76bgPu+HQNvl53DJdSc1VrbCvQJpa4p6ujnqML6jlo17q2qQuO+p4tW7aMtaExBnVmvrV3S/h72X40AGVDdW4ShogAL+yISYDODtNrHx7VWRLRPvDzrN2jFiwFWSlto4JY5/Q955KRW2T6hFqCBIfGfe84nYC1hy7hSmYBWkQEKOpHKLAfygw0Ddoy+0Z2oR4Ld1zAnFXHpQPNUWzafYg1yY2OjmaeFS1hUxfcxYsXMWbMGFy5YnyeCm32K16YyG56LbFG2iyeW7CNbR5aLzYkQ4eSOZ6f2AOzRnWSrwrMhXrA3ff1PyxBRc1aH7K0aEzE/UPbo3WDIHb4smZTXoHlKCnOR5kFkhCOxGbimYV7EZOYI1+5CsWVhw4dik8++YQJkVawqQVE7qWFCxdyZXB5uDhhXPembESAlmgunVIHt2+IXOnUcTE1R9Mi1KNZOD64cwAm9W4BRxNqWgTVQ1N0R3ZuwopVYxKyVIsN0mfpXFI2S98my+iM9Jyy8Ch25yP9N60xIVhgGQwGHSpVbjx8KiEbD8zbLu1D+fKV/4dcfpcuXcLJkycxatQoeHhoY8qxTQWIsrd+/vlnriQE6kQwpks0Gocqa4tjDYJ9PDCwXRRCfD2ZO8ZWXRtuBGVvzRrZCXPuGogOjYLFxmUB6DXu0SwC/VrXx8ELqcjMVy/ATO65FMnKOnI5FZtPXMHK/efx9+FYpOQWSQczZ8mqdRPvqZ1RqpcESMU4EB1WnpYsn6OxNc8kS0hIYG64gQMHyldsi01dcBRs7969O86cOSNfuTFUDPrdQ8Mxrpu2m2TGZ+Tj1V93srkwNLLZltCmSOMFXpncC4PbNRRWj5XILtSxz8DKAxeYxWJpqFC2R/MI6RHODhgNg31ZJ3Ny15G1RA8nx3qsxksknNieysoKFBdR+YR6B1Vyud3xxWbpUFIsX7kxzZs3x86dO+HjY34CjbnYVICI/v374+DBg/LqxlCx5Kf3DMYdA5R1p7YFhToDNh2PY/GhLSfjkcbxoVAT2nioddBNPZrhlp7NNZG4UdcgN9z6Y3H4fsNx7DqTaNVJqV5uzgjz80IQjWOWrHMSKLrm6ebCvpK1VCVKgT7uaBcVjBaRAfLfFlgaEh6KAak5+2vD8UQ8+tMu6dBrvCygQYMGrAEACZGtsbkA3XrrrawY1Rh0entnaj88OqazfEX7ULuVc8nZ+GHjCfy++yx0Fh5SRjGIQW2j8PjYLmjXMJgJjzjx2hbqfPD7rrP44M99VrGGjEGfB8rgI2OYnrtIhxXyLkzu3QIv3NKTCZTAslAXhJJiGrevngAt3n0RLy0+wBV/JAGiPbdFixbyFdthc8dxw4YN5Wc1QyfIrIISu6qPoKLZzk1CWR+5S9/cj68eGIbekmVCGX009sDcgkNysVErl9YNAvHk+K7Y8/4dWP78BAyURIiy3YT42J4QXw92aNr7wTRpk2+JAG83s993c6D7p1w6eVM3Bn1ZOZtdRBmcX6w9jJcW7WDWu8CyXI39qLuPUeo1b+zZxcUFAQHasHhtbgHNnTsXzz77rLyqGepK/eGMgXBztt+WMaWGcpyVrKKziVk4m5SNiyk5LI03NbeInZbJarpeZGm7oiQMSnYI9fdEmCQ6TUJ9mdukZWQg2kQFMkETaBvaIHacTsQfe8+xWh+KFWkJD1cnfDNzOMuSFFgOqgHS6QpVS0KgBIT3VxzF3PWn5Cs107ZtW+zZs0cTNUE2F6BVq1ZhypQp8qpmJvRoJt0gw0ya169F6INDEzPJNUfFrDpDGev6Tb3G8qnFi/TOUOyLinCdHR3gKgmvm7MjEyO6LhqH2id0yLiQmoMv1hzGin0XNJU12a1ZOLa9fZu8sh3UZy85uxCx6XnMSssv0bMmwPT593Bzho+7q3Qgc2cjROxtfIihVC8JUJH0TJ2tl9xuLy85gN92XZSv1MywYcPYvqsFbC5AJ06cQI8ePeRVzfRvXR8LnxiLIOmDJxDUBk5dyWRCtO3UFWYBk2vMlpB3MO3nR9gBxxqQOzCnUM8yRs8kZrGknSOX0ljslKfrPGV2RgR4o3WDAObeHtAminkI/DxdZTe3/Ac1BPWAo15wakGJB4//vBv/HEuQr9TMfffdhy+//FJe2RabCxAVoYaHh8urmmnTIAgrXpyIyAAv+YpAYP+QJRyTkInNJ69gV0wi9p5LsmnCwpXvH2QxREtCgnMsNp21stp7NhmnpX+/GrVTTg4OaBTqi46NQ9CzeQTLBm1ZP4Bl/WkFvWT9lJaq537NyNfhvm+3Yf/FdPlKzbz99tt45pln5JVtsbkAkR+UBCgvL0++cmNofsqmN6ZoshhVIDAXuhdypY05Ni0PK/ddYJmTlCBgTUh44ubNtFgCS2l5OX7ZehoLtpzClcx8yfrRMQG2BFSOQP+ebk3D8OzEHugkiZKtofeYBMhgUO+AkZRdhNs+34QLKcb3UGLBggUs+1gL2FyACHLBkSvOGFS/sPO9qazYTiCo7VA8cOeZJCzeeQb7zyczqyFPsows5aYjzaGOGZToozYZ+cXYdDwes1fsx4Xk//Ypswb0bxvbtSkeH9tZso5CWQapLaDU65KSQlWH0V1Ky8eo99Yiv4TvZ27fvp01ANACmhCg22+/HStXrpRXNfPTo6Nwa5+W8kogqBtQCcLJ+EycvJKB01cypdNuDi5KG3mmdF0tqNHvr0+ORdNwf/mK+RTqSrH+aBx+3nISO2MSbR7joqLcm3s1x/SBbViJhLVLFaj/WzErQlUv8WTPuVTc8vEGrpQGakpKzZ8DAwPlK7ZFEwL0zjvv4N1335VXNUOTO9+6va+8EgjqHpQ5SfU6lB12OS0Xhy6m4kRcOo7HZSAhq4BlkCmlYYgv5j04nAXyadyIGlAW23MLtmPzibirWZ0ageqw6gd64eHRnfHAsA5W7TBOwkNteNQsQv1p6zm8uHi/vKqZiIgINoXAlrVo16IJAfrrr79w2218qZ/Unv7P5yfIK4FAUAXdyOSiowF3l1NzcVn6miQJEgX36ZFVWIKysgrpz1WiSqMoW2xYh0Z4ZHQn1WZDUTkBNWSd+c0GxGfwxSVsAVk/t/Rujnfv6Idwfy+rWEMV5WUoKlL3NXl20T4s3HFeXtUMjWTg6TxjLTQhQNQivF+/ftDrjQfmIqWTy/mv7pdXAoFACVRzRgJUKgkRoXY9GVllNARt7t9HNFdoeyMoY+71KX0wpH0UizNbEko+0JUUyit1GP/hPzjAmQH3+OOP44MPPpBXtkcTlYze3t4IDQ2VVzWTkl3EMmcEAoFyqIjZ3cWZFW/SQ03xoXZZz/+yHXNWHrAb8SGOx6Xj4XkbseFYnHzFclAfODWhZgpnk/iTOtq0aSM/0waaECAajkS+SR6oTQ3VDAgEAu1ARbQzvvgbC7aeUm0gn7WgTZziVVM/XoNfd8SoOtX2eirL1f3ZSdLvzZv9RgkIrVq1klfaQBMC5ObmhsjISHllnMOX0uRnAoHA1lCGHlk+NH5ETeo5OMLVIxC+gc3gH9oWQRFdEBjWAf7BreHlFwVnF0/5T6oD1SjReH1KezfILkq1KVcx+404HMt/GKfMN39/9TIc1UATMSCDwYCXX36Zuz3E+G5NsfjpcfJKIBDYCvJIPPjNBizdc1aVTdvFzZcJTUiDXpLQtIKzqzccHKmljqP0kM7LlVeTKCorylBepkdJYSoyko8gPWEf8jLPokK6bi7Bvh6Y//BIDGnP16mfF8qAKyrMlVfq8OrSg/h+k/GBnkSHDh2wYsUK7s4z1kATAkSQ+JAIkRgZo3mEPytIFR2gBQLbQQkNry/ZzRIOTKZePbi4eMMnoCmiWo5HROOBTHQUIwlhQW4c4s+uQkrcNkmY0iWBMj0ORRmBq16aiM5NwuhXVAXqgl1Sol5nC0q3pwSEQ5cz5Cs1c9NNN+G7776Dr692OslowgVHNG7cGJ6efCY11UBcTtNueqdAUNuhJqLL9pxjMR9TIaFp1GoCugx5C73HzkXDluNMEx9CUglv/8Zo2+tx9LtpHtr1fkqypGh4pWnqkVukwyPfU3ubbPmK+aidgJCaV4J0zv55VPfTpEkT7j3WWmhGgKKjo+HlxddklAlQqrqmrEAg4OdyWj7LdqO0a8VIm2FgeEf0Gv0Z2vd5BmEN+8HRSb2RCm4ewWjUeiK6D5+NDv2ehau7aXEP6jhB1h2NR1EDtQUoPrMAxXq+n+nq6soO+U5O2pqlphkBatSoEbdpSPNULkkCpAnfoUBQx6BC02d+3sLuQaU4uXhKVs9E9Br1KQLDOkrCo07x6/VQvMjVPQBN2k5Bz5GfwC+4FbumBGqSumh7jCrp2dT5oLJS3QSE+PQCSRz5BIgsH7KAtIZmBMjd3Z1N6uOBzH/qGEw+aIFAYD0oZfnHTSdZY1GluHuFMYunY78X4OzqI1+1PAFh7dFj5Eeo32ICHByVWVqUkv3qbzuRKFkb5lBRXs5eO7UgcYzNKGCDLHkgASILSGtoRoCIXr16yc+MczE1hzU6FAgE1oNq8L7+56i84sfNIxAd+7+IqOZjWHq1tfGQxK9lt0cRHD1J+u8rG7ZHh913/tj7P6PylVAhWT+UvacW5Bak8Qu8Y739/PzQoEEDeaUd7FaAziZms75XAoHAOtDo8N92xCA+I1++woeLmx+6DnkbYQ372kR8qnBx80Zkq/sQ2GAEKK1bCeuOXMb203wTR6ujoqLiqvmoEgUlBpznnP9DdOnSBc7O1plyqwRNCVDLli25C6Uy84tFRwSBwIrQcDwqNlXSbdvNIwgdB7yE4Pp8Y/ctCeXDUU1Rg/ZPIDBqtHSBf/vLLtBh5f4LJnV5ICuFXHBqkppbgisK3ILUa1OLaEqAXFxc0LNnT3lVM3QLbDym3A8tEAhM448955g7ihcHR2c0bjMJ4Y0GyFdsC9Xz0MPByR3hre6Bd2AH+TvGIffb34cus5Y9SmECpEKB7LXsv5j2b0NZY1AK9uDBg+WVttCUABHDhg2Tnxln88l4FowTCASWheb5zF17RFEchLLcotvdBgcH7aT+VlUFubiHIKz5NDi5+slXjJOcU8ja9CiFst+YC05Ftp9Olp8Zp127dtzNnq2N5gSod+/e3MVSVzLycSYxS14JBAJLsVyyfrIUdLimLLe2vZ8wvbDUQlwrn97BXRFQf7i84uOXracU1wWVl6lr/VAd5KHL/OEHmgGkVTQnQMHBwawolZeNxy3fQl3wX2is8rG4dKw6eBEHL6aKdPhaDvV4+21njLzio3mnGfALaiGvtAEZb9cacPUky4xccS4e/L3RqPv05hPKXP/l5epm6+6/mK5IBLXqfiM0J0A+Pj6KZlZsPi7ccAQV51J20tHLaexBz2l0s5rQyYuyoDo++TP6vPArbv94NQa+shidn16A7zYcZ/5xmgkjqF3QvJzLqfyxHy+/hmjQbKT0zLQ2OJbiegEinJy9Ed5yBpQUqdI9wJuIQfGf8jL1EhDov7ru6JWrCw5ozI0WC1Cr0JwA0WwgEiDelhFUD0Rz8esqlBq7+eQVPPHjZox4cxn6S4JAj1FvLcNTP27BgQsp8p80DzpxzVlxAI/9sJmNfL4WEjv6b908eyU+W3MYKTlF8ncEtYETcRnILeYreaD0Zmoo6uoeKF/RDjSOvDp8QnrAzYd/kz4Zn8ksIR7KykpVrf/JKdRzTz8laP4PHeq1iuYEqGpoEm9fOHpDjtTR+UA5RTo898t23PvlOulUdgYJmfnsZEYPEoWF22PwwNfrsTMmUf4b11FRDofyEjiUFcHBkA+H0jzpa6G0Lpauk9vg/2+cveeS8c36ozWmoZ6Mz8B7f+zF+PeWY92R2P85bQrsDzrgnEnKgp7TzUoxH0q5pgw4rVFaVv0H0tk1AD7B3aRnfBZbviTG56TXhAcSIDWJScxBlrTn8SIEyATIAqLKXR6oG8KRy2kWGyClRag9yL7zyRj+xlJ8v+E4MvKL5e/8LxdScvDp6oPIyS9APUlsHHUZcC6Mg0veWbjmxcA5/yKcCy5L1+LhXHRF+horrS9J18/BNScGLvT9oiR8vmo/c/MZg363mIQs3PHpary4aDvScoU1ZM9Qs1FK9OE9S7h7hiAglK+llrUpNVS/R1AsyCuwPRyd+ZKfCqQ950xSttHXhPq/qVn/Qwe6k1eyJAHkEzU6xHfq1EmTBahVaFKA6tevj+bNm8sr45AAkTVQF6AN4Yu1h3HrnFVso+dh5+lEXLhwWhKTS3AqSZWsHEmMKnjiQxVMtEqLMrH7nDJXHgnR1+uOYuY3G7D7bJJZbUwEtoMOHUpqf0Ia9IQT50ZuTejjV1PdjId/Szi58FkKdNi9lJIrCVrN4kLdr0mE1ILc4Mfjs1gSEA/U3Lljx47ySptoUoAcHR3Z8CRejsem12gF1BYoqeDh7zZh9p/72RhkXopLy7DnAg2tMk0ESqQbTX+D02NNUHIIZSne99U/WLHvvBAhO4Rcrik5/MWXoVG95WfaQlcqWSM1fIRd3ILh6llfXhmHXhNjXRGuNiBV7zOfJ1k+J6/wzyeiCQNKDvK2QJMCRIwfPx5ubnyt2ulksNGE7rz2An2GE7IKmNWzfN85k9qB5JeYnirt6+6EAE/TzXiq13ryx61YdeAi9+lNoA0olkjWLA8U96HO01qkRG/k31CvHryC+K2F1NwiNpbiRrDsN5W7H9AMpth0/vY7Y8eO1dz8n+vRrAAFBQVh4MCB8so4y/eeYxt1bYR6cD0xfzN2xJjeDDE62EN+phwH6eac2t28OfJksT303Ub8sPEE94YmsD0XU3LkZ8bx9KkPR4XjDqxBeXkldHrjBx93BZlwGXnFNX6OyfWmdgHq0n2XuL0I5EUaN26cvNIumhUgYtKkSfIz4xyPzcCJeP70RHuBijxnzduIjcfiTK53CvF2Qa9o8+bAP9g/Ek1DTBcxgrKH3lm2F8v2nOWuoxDYFiXdD7z9GsnPtAW5j3k+b27eDeVnxqFu1DXVvFWoHP+h2O+6I/z1PxT70XL9TxWaFiAaz0CdEXigIXULt8XUKisot0iPe7/6B1tOmF5s6+RQD3f0CEfjQHf5imk0D/XEexOaMktK+pEmQ7P231iyG7vO3CA1XKAp6NDAi4uJo68tCd02xZL1w3P7KOkLR+63mu5Jg0Hd9OtVh+JRyDn9lJgwYQKoCanW0bQA0WiGrl27yivjbD4Rh7S82pH2S5bPl2sPszkkpuLi5IAZvSLw2OAGcHM2760m0ZnYMQSL728n/bwoNAp0I7e5SVChKll1VNAn0DaF0kmfFydn8yxkS0DFp3oO9xvh6ES/P9+HWs8EqPqfS41Hy8rV60JCtVgrD/K3HKMSFiVNnW2JpgWI0gg7d+7MilN5SMstxv7z6lT+25o955Lx7fpjJsdLmod6YNE9bfHRpOZo4K/O3H0SnM4NvPGuZAmtfqQT7ukdabIIUWrv0z9tQWY+fzafwPpUKHAjKWlnYy3yi2q2VP4L/f58f7YmT0s5FZ+q6Io5l5yHCwpaIdGeSaUs9oCmBYiEp0ePHtxFqeQu2H02kZ0Y7Jmk7AI8+O165oJTiperI27rGoaNT3TBzZ1C4O2m/gRKV8myahXmie+mtcKqWR3RJsILjiYoEbUJ+kYSWXt/v2ozXm4u8jPjlBm05X2g1OtiHb+AVpTxH4ZcnR3hWK0vuhKGMvUmNZOOHbyUjhzOvYCSD2imGu+eaWs0LUBEt27duGeZ05ljz9lkZBXYb1EqNfx84ZcdSMpSPvgqOtgdH0sWz48zWiPSzzrZSCPbBOHXe9tiSrdQxbEhSslesOUkjsXWvuSR2oK3O78Aler4T+mWpqy8ErkFyrLQykr5e0qSAFXnmaHi0woVSw1oP9h3IY3bE0JeIxIgEiJ7QPMCREpONUG8nLqSgfPJ/MVaWmPjsVhsUtjunajv74Zv72iNu3pHsNiPtSDDp61kAX15W0u8OCgISv/TFA96bfEu6aSnnstCoB5+nvwHmaI808sE1IQ+SkXF5TAoLJ7WF/Inxni6OrMEn+tRu/tBen4Jdp/l73VJg+e6d+8ur7SP5gWImD59OhvXzQO1yaBaE3vc0CgeMn/zSUWZR0RUgBv+mtURg1r438AtYHmoWPWFISF4pn8gXJ2U/Q7ULPXnLafZxiHQFk3C+F05BbnxqFS5+NIUdKXlKCiRhEBe81JSECs/M06wr4dkBf23yPPq6AV1R6CsPhyvKBV+9OjRzAqyF+xCgMgFpySr4+/Dl3Eumb+ATitsP52A3WeS5BUfLUI98NOMNuhQn697uCVxkw4JT/b1x91dld8AX607wgpuBdqicYgvnDnN2vIyHXIzz8kr20A1Pzn5ZTW23ameShRmHZefGyfMzxNuzv91c1VWlDMLSC2K9WX4bdcFeWUc6nowdepUeWUf2IUAEXfffTd489opR3/e+mPyyj6gCuc5K/crCsiT1fHy6Cbo21QbAUd6fwI8HPHeiGBMaK1MEGPT87DhWKziU6vAslAMKNiHP706LWGv/Mz6kPcjO48KRJV/isr0edDl81tAoSRALv+1gNjsHxXN+H+OJyAhkz8W3K9fP7Rs2VJe2Qd2I0AdOnRAixb8I37/ORr7P4PTtMyyPecV1cWQFt/aNUx6hNrM7fY/yAcEb1cHfDQ2BG1C+eMHVPe05tBl5ChwNwgsj4erMxoF81u0aVd2o0LFGhheSHTI8jHcYOaPMYrzzqOsNF9e1Qzdb01CfSUL6BoBkoSntFS97Dfq3P3rzgvcBzJKOnjggQe4S1a0gt38toGBgUzhea2g9PxibD15xS5iQdRc9MdNJ+QVHz0a++L9CU2rDYTajGte6vo+znisjz+8XPg/YnvOJuKCHbpOazM+kgXUsn6AvDJOUX4ScjPPyCvrQG43snwo7doUKivLUZh1EuUGPmuDrMKW9QOrzlsMA7N+1Es+OBqbifMp/Fl5NHiOMobtDbsRIHd3dwwePJh7ul+Jvoxlk1EPJa1DI48vpPBn7pHr7f2JzeDnobFOt9fcgI7SJ+vWdt7oWp+/CJZSTlfu5/d5CyyPq4sTWkmbrYsTX1ovpWJnJB1SdTOuiRJ9BbJyTRcfolyyfAoyDjMh4oEJUOS1olwJQ6l6ljv1mNt6OgnZnJNP6VBOjZt525ZpCbuy1+hFbtiQv2EgBfXjM7Qd2KbYDw1sy+asXaJT1/gOwejUwFu+oh2u33S8XB3w9vBguDjyW2lLd59lWUwCbUDvXNuGwfDx4MtCpSy41Lgd0BfzDUs0FWouWlhcjiwTYz7XUpgTg6Lsk/LKOI1CfNE49P/dkpT5VlGh3meWUq83nUzk7uBAWW+0N/JmCmsJuxIgqgm6/fbb5ZVxKJ7w8xb+D5YtIAvt0MUU/imHkvUzQRIg6nigOapJwe0R5YaxrfgnZNKcla2nau9sJ3ukY6MQRXGgnIwzLBZkCWhLJmsnK9+AbOlhbld16n6QevZnRRbb1P6tJQu/auusRFkZ1f6Y93tcy66zqTiTxO9+o0N5797aHARoDLsSIIKy4ZS0mViw9RTLsNIqNN+dd7Q20SjQHUNaBcorDUE3YDWnQDpBP9E3QFFt0Ppj/I0XBZaHrJ9x3aLllXHICjq9/yvoimgKr3qQ2OQWGJjLrURBi52aSL+0DEU5/DErcr9N7NFMXl39nSj7TS3II/LV+tOKut9PnjyZNW62R+xOgMjcvPfee+WVcSjA/+lfhxS9odYkTTrxKxHI27qGatP6Kb/xTdgkwBmdI/hjQfvOJdc4bdJeoU8gpQrTZ7JIZ0C+ZP3Sgyb6UhZgTfNlbA2d+t2vSzuuCX1JNk7t/RzlZvZFo9uWMtvyCsuQnKFHQVG5avdySd4FpMf+KT3j/3m39mn5n/ZE5eXqut/WHonHuWR+64cO43Qot1ccX3nllTfk53YDBdtWrlyJ4uJi+UrNUEbc4HZRLHdfayzbcw4bj/Od+F0cHfDttFbMDac1KktLgLLq41gUAzqfacD+BL5mj87Sv3N4p8YI8dVee38lkKBcSsvF4UupLM634WgcVh+6iL+PXMaaQ5fYiHIqmt58Ih6bT15hRcgnr2SwTuHUFcNJeh2oGShNpLU1tOlSt/lD0r+Fl+KCFLh5BME3sDmUdMomY5pEhxIMCkrKWUdreq6O7Fyl3FCAxNPfoDgnRlrx/eQgH3d8MG0AwgOqatwqoSspVM39Rkk4ry09hMQs/qauTzzxBEaNGiWv7I96JSUlar6vViEvLw8PPfQQVqxYIV+pGbqRX7i5B56b2P0a3602oIFzS3byuQC6NfLBnue7c04ssS6VBRk3FCBi4ZF8PLoqDUUc2Ur+Xm6Y//BIjJBEyN6gvWjf+WQmMDtjEpCeV8ysHbLodIZyozELqjGhAkeqMaFNv2GID/q3bsBcYK0bBNn0vY9JyMSYd5azfxMvHt6R6DrsQwSEtGQJNNVBrxmJdamhkqVUl0qfETIGyR2l0t7+P6ScmY+U8wtRWcFfszSlb0t8cd9Q6VDgzNaGUj10OuVNg2/EhhOJeOzHXcgt5nPpRUREYO3atXZXfHotdueCI8gNN3LkSHh68lk09OGmkyad4LTGWQXxnyEtAzUpPiz5wMiN3CrEBT6ufB83ckdRMoK9QCfXs0nZbIBgt2d/wdDXf8dnqw9Jlk8aEjILkF2oY21VeALm5F4iwcoqKGGF1NtPJeDtpXvQ+4VfMeTVJfh+43Hpej57jaxNwxBfjO7SRJFFVlyQhP0bnsfFy5eQmKZDSmYpe6RmlSI5oxRJ6XokyNcpo40y20ol64deB0uIDwlOxuU/kXz2R0Xi4+PhivHdmv4rPmT1GAzqpV7T52PN4Xhu8aHU66FDh3JPCtAqdilAxPDhwxEdzR8YPR6XYVKXaUtCwngxlb/wskuU9lKvGRSENbJbNPR3hocL38alLytnAmSp069aFOsNWCtZOk/+uAUj3lyGFxbuwJlEy6Qf02dl/4UUPDF/C0a9vQwv/7qTtS4qNXFgoSlQB+g7+rdmjTiVQF2mYw++gfysU9KmXc7iYKWSpUP/JmvGZivKS5EZtxpJMd/JV/gZ2KYBhrT//xIQtVOvKe6z+RR/H0iqh6TGo7yHcK1itwIUFhaGu+66S14Zh8bnvvfHXul0qV7GirnkFevZ6ZkHZ8d6aBqiwZgIqQQFmo2ksQZ6OMKPczgey3Yq1LP3TKtQB29yRz3wzXos3hmDzHzrWddXMvIxb8Nx3Dv3H0z9dA1iLCR61dG9WThu79dKXvFTlHsGV45+gOI8WxUaVyLt4m9IOv0td8eDKjwkq+edO/r9m3xA1o/afd++2xSjaI5Zo0aNMGjQIHllv9itABH33HMPeyN4IXfIl38fYb5lLaCkSwMlHngoaGtjNSrLUcnhiqCOQQ18r7oveKBMMa1lLtKGQwkCzy3YjgkfrGATXWlqrS0+TvQZJtfeuiOXMUqyvuZKn+uMvGJVN8XqoHjqy7f0RPMI/vY8DOn3KsmPxfldjyA7caNkQfBPHzUL6b9bWpwqWWBvIjnme+m/q8y16+zkyP690deMpSDLR83U6+PxWfjrEL93htxvDz74IHdXGC1j1wLk6uqKZ555RtH0v0XbYnA+SRsD66gGiBdq/a6FbKj/wSBtJJwzYLzd+D9uFLTXkgVE7rbFu87ito9X4et1R2wSg7kRmQUleP6X7Zj++VqWUclb1GwqZBF8es9gRP6bDcZPuaEI8Uc+QOKJz1Gca9nRDRUVpchJ3oLLB19HTtJm+So/dL+N6NgIdw5qK1+5SmlpiWpCTwetj1cfV/Tz2rVrh0mTJskr+8auBYgYMWIE2rb97wekJhKyCrB833nmf7Y1xQo2MRenenDQUuNRorIClTr+Vkeezvy/P42l0IoBRJbqG0t24+kft+DUlUxV04HVZNeZRDzw9Xp8/NcBi1tCfVpF4v7hHdhoaqVUlOuQdWUtLu59TrJKvoNBr/KBUPpcFmafxKW9zyP+6Icoyj4lvR7K7/cwf088f3MPlpVZBdX9lBnUs372nE/DwUv8BbvU7fqFF16Al5ft53+pgd0LEMWCxo4dy4Yx8UDC8+fe88wdZ2vcXfhvXqqL4Mmish7S71KSR7uJvDZOiYJW+S6SVWtrvaXfNjm7EFM/WY2v1h1lRaNahjQnI78Eby/di5nfbGC1RJaCarVmSgI0qF0UcwkphQTBoMtEyrlfcGbrPUiVvuoK41ljUGPxxOqolKwd+nkFmUeZxXN+56PITz+gON5TBWW7vXlbH3RuEnpN5mkl9Hr1XlOK/y7ffxk5RfzFutRyp2/fvvLK/rF7ASLhGT9+PBMiXs4lZWPRjtPyynb4uPPPyymhGhILn2oVQUFYcr8pIK+EX6xcJXG2Zc0WWRCHLqZixhd/Y8vJK/JV+2HpnrN46qctuGLBgxalJs+9fyhGdmpsVnmAoSSDZaad2/4gYg+/jeQz81mcqCgnBqUl6cyV9h+k94ZcebqCK5LIHGJp1QknvpAsqudxYfcTyEnaIgmS6TOJ/Dxd8cZtfXF7/9bylatQz7cKFSeeHr6cgc0n+TPfaCLAxIkTERCgMP6mYeyyEPV6ysvL8corr+Czzz6TrxjHy90Zu9+7A03DbddDiU6oDR/4Vl7VDGXBHXqpB9pEaMD0JtdbcTak3UG+YBzSzt7fxONQIl+mzyOjO7PMIzpp24LTVzKZ+NBhRVPCrwAS8M5NQrDsuZsUTTVVCtUrPfjtBpYZqA714OjkDgd6OLqinoMzHBxcpLWH9NEjEShhAkNp1RXlepSXFTMLSA1cnRzx1E3d8MyEbv8ZOEcHEr2uCAaDOkPnyqWfN/b9v3E0jj+DsWnTpli/fj0rQK0t2L0FRFASwvPPP4/Q0FD5inEKSwx4fuEOmwaTybf8n6mKNWAor8SlDMu5VBRRWqxIfIhsyfrJLeFzrVDwl14byriyNiQ1sam5uP2T1aymx1zxIcvAXfp8hrq6IdrDC938AnFbREM8ENUUzzZpjaeatMT9DaIxMawB2nv7obH0Z4JdXOGqgvVHSRwHJSvujk/XICVHvYr966HxBB/OGIiOjUNUKpSWLBxJVAy6LOiLkiVLJ56lbxdmHZesotMoyb8MXWGC9BFMkwzxXNXEh3rdzRjcFk9LAnT9fVkhCZ9amW/0kVq044Ii8SHuv//+WiU+RK2wgKqYN28enn76aWYq8+Dr4YqvHhiKCT2ameTHVoOezy3ESem0zcOro5vg9XFN5JWNkMSnsjhHuouU+emPJOsw8ZckJOcbf29oI5gjbWh3D2knX7Ee1G7mkXmbWNGnOTjXc0BLLx/0DQhGRx9/tPbyRVNPb/g7u8DxBp81OhWn6ktwoagAMYV5OJSbjd05GYgrKTJLCEnIJ/duwUQi4JqAutpcSMnBa4t3seJcraXQGyPQ2x2Pj+2CR8d0rnb4XklxvrSvmO7Wu5a4jALcOXcLzqfwNyGmiadbt25lXWBqE7XCAqpi3Lhx6NKli7wyTn6xHj9vPc3qKWwFTZvkZfM5G6ePG/SopMQDE4LEZ9NLkc/ZQp9On5SBZG1yi3R4b/k+HFTQcLM6OvsGYFGn3ljVbQA+bNUJ90gWTk//IARJls2NxIeg70W6eWBgYChmNWyOL9t2xfoegzG3TVdmGZkKJd4s33sec1YekK9Yhmbh/vjsnsGsc7YtrFdToZjPe9P631B8Skt1qokPCfNfB+MQm84fm6M49+uvv17rxIeoVQJEiQhTpkyBmxvfKY/OaFtOxuOfI7FXL9iANlFB8jPjHIjLQ2ahOjeCYsoNkvjkctf8XEuZdNOdTtOjyMAnQO6uTogM8JZX1oEyDBdIh5G/9l80KduQLJ523n5Y1LE39vUejpvDGqC+JCZuDsrTlKvwdHRCI3dP3B/VFMf6jcZ7LToyITKlHozS2qlX3fK95yyaTUkd57+4bwhendyLWRW28SvwQSJJB8Dlz0/AtAGtqxWfCsrWU3HcNlk/v++9xF2rVdXzrV+/fvKV2kWtEiB6sygjrnnz5vIV49DN+ObSPYjPyJevWJdeLSO5A+00enjxQfNO5yZRJlk+RZL1VcPMn5rILq7A3itUvCdfMEKAtHFdW3luDdYcvoT3/thnkqsr0NkVz0e3xh9d+uHWiIYWced6ODrimehW7L9xn2RR+Tjxd5Wogv5pr/y2S9FIBVOgjfyZCd0x/5FRGNA2ymaJJDVBVs8DwzvgzxcmoGfzG8dVykr10h6h3OKvDtpr5v5zCpfT+Pcab29vTJ061W4HzhmjVgkQERkZiUcffVRe8ZGUVYC3ft9jE791g0BvNAjib6nx24EUlHBaEqpg0JklPkRCngGHObPfiK7RofCUuw5bg8tpuXjz990oNKFPIMV2fu/cFy81bYMmknViyRM//WxKVCC33setO7N4klISMwvwzT/HFHXhMJWh7aOw4LHRLPZE8Vat0CU6jFk9VOcTVcO9VykJz9WsN3X2hXXHruCPfZflFR+dO3dmTUdtFaO2NLVOgIg77rgDgwcPlld8rD8Wi/VHY1m6pTWhWopWDfjjQJQJt80asSDpdajUF0nik2WS260Kejnn7slBsYH/dR3Wkb+/n7lQZ+Zft5/BxRT+KZQEbQedfPzxS8deGBAYAmcr1iyRa+6u+k2wrG13NJCsLyVbE1l4fx24gD3n+OtPTIU2TRriRpbG3tnTMKVPS4T7e9qkowfFFZtH+OPDOwdg/euTmdXj4VrzIYda7qjV8Toltxiz/zqmqE0ShRLefPNNu+94XRO1UoDog//GG28gPDxcvmKc3EIdvv7nKOurZU2ow24X6cTPG7TNLTZg5bEMFJVasA0/FZlSppsJ2W7XczRZj+Wn+AOuNAV1cNsoeWV5qJP0bztiFLVmou1zZHC4JD690UESIVvRPzAUixu1QWd3b0UipDeU4/XFu9jMIWvRMNgH3z00AoufHo8nxnZBa+nQRcP3LA1Z0sM6NMJ70/ph5Ys34+HRnblGi9O4BUo+UAM65CzedRFxGcpS4WfMmIHu3bvLq9qJXY7k5iEoKAhpaWk4dOgQt1WTmFUAX0839G4ZKV+xPFUB5XWHY1nDS2PQvyQuS4dhrQMQ6ad2Sq1k9dCER8p0M3OWP6Erq8Ssv1JZBhwv0wa2wfjuTeWV5Xl98W7WQ00JlFr9bbvuaOZp3USJ6gjVl6G1myc2FuSgQMFpnaaa0uTV/m2sN9CMBIcamPZrdXXCK83XKZU2Z4q/qt1AlSyte4a0Z+n80we1Yb3r/KV7mwfaL3Q6mkelzu9EiQevLT3IOqfzQkWnH3/8MQID+b0j9kitqgO6npMnT7KsuNhY/iw3aq646c0prAeUtaBi2OFvLsNhBcHhQS388desjvBQ0E/uhtDGRTEeXR4qVUo3pXDakuP5ePSvNOTr+W5keu3XvjIJvVpYp9jubFIWuj+7UFHsj7LQKNOtu5/tNwaKUVSkpLHna/OyMONKDAoViFCjEB/889pkRTFIS0DDB3ecTsDG4/E4dln6vJSUsi7R1BGdBu7R+3Ntcggd2epJYkbJDa7OTqynIrnYIkjcWtfHUMni6SLdvySwpkBZb3q9OqMtyNqc+f0O/HMsQb5iHBcXF7z66qt44oknuHtc2iu1WoDoA/TVV1/h2Wefla/wQRbQwsfHWLUW5eetp/DwdxvlFR+vjWmC50c2gquTKZ5U6W0nVxtZOjTPh1V5q/dRiM02YNrvyTiQwO/GGNg2Cr88Ppql71oacovM/GY9ft99Vr5iHHcHR3zXvjtui2ikyOVlScqT/r9g9pP0BLyZGgs958mdNuh3p/ZjMRqtdFqnzuOUFJSSU8SEidyEJEb00EuCRO2FSGzosOLj7sKms4b7ezGLhx40v8ccKOZTUlygSuyHRPP7zWfwxjLywsgXOaDEg6VLl7KEqtpOrRYgQqfTYcyYMdizZ498xTiURvry5F7MV22tgjqygnq/+CvrPcZLoKczvr2jFSZ2CpGvGKNSEhxJaKiJKGX3VEo3mQo32vXQzXb7kmSsOCXdyJyfLpp39M4d/TFzhLQZWiHj53hcOiZ/+BeSsvn98s9Gt8bbzdvXWExqVaQXujz5/63m7HIDHkw4h1V5fJ01iOEdG7F0aUt2SFADOkxSpwgHSfotKZa6kkLV+r0duJiOB7/fiWRJTHmh+PXq1asxZMgQ+UrtplYmIVwLZZK8++67iqqIqWjvx00ncdaKg+voNEq1E0oEL6vIgNf/Oo8Tl1JQqcuX7H3pg24ovtqlmvVrk9bSdWocWlmQjsrcJOmImS5dK7jqcrOA+BQbKvDS+gwsP8kvPgS5gUZ1bmwV8aHNbM/ZZEUJJ5T+/HDDZtoRH4nrXUQBjs64OyAcgQpqhPafT0GKAhG2FbQxO0nWjyXFp6xMr5r4kBtx/pazisSHZv3QlOe6Ij5ErRcgon379rjzzjvh7Mx/Y8Zn5OGlhTsUBQ7NZWj7hmzmvhJi0nR4YPElHL0kCQwJTWEWUJjJ0qepfoe1ziFhIlfbdRuW2pQYKlnK9Tf7lKU0E/cObY+GIdZpNVKgM2D32UTmn+eBuhlMr98YYa6Wdw0qoV41Cj/Iyx9DvPkz8/KK9Vh7WFltSm2korwcep16WYGrDsZjwwllyS0tW7ZkcZ+6RJ0QIA8PDzZDPSpKWXrv1lNXWIGiJVuXXAvVTNw1uC283JQVGB5K0mHG0mTsjLNeWu31kLZ9tCML72/LRlGpsuyhPi0jcd+w9laLq2RLls+B8/wJH2GubqxbtZasH6Kymtk0btIp+sWQhop+10XbbT8by6ZIH16DQadazQ81GX3nzyMsbsULeWoo7bpx48bylbpBnRAgokmTJqw2yNWVvyKbgohLd5/FygMX/pOFYynI/TSxRzN0b67MCiLOpJfi/uUp2HihCHoFk0fNhV6WlIIyPLgiFW9tzkIhZ8ZbFdQS5e2pfblqM9TiYmoukrL5a5MmR0ShobsGiwHLqt8wW7l54hbfYHllnEvS60GvSV2lrKIMhlJ1PB1ZBTo8/cte5EqWpRIo8WD69OlstExdos4IEHHzzTfj7rvvZv5kXsgF98lfB9nQLWtA1dnUmbemFiE34lKWAbcvTsbbW7IQl2NQMaetesgw3CAJ3ozfU7DgiPJeepTsMWNQW7RvxJtEoQ6bj8fLz4zjIlkUd9WPllfaotJw45T5OwPC4KLgc77lBP9rUpugPm/6kiJKz5GvmI7OUM6y3k7EK5vzQzWLc+bMqbX93mqiTgkQBfkef/xxdOjQQb7Cx/G4DLz62y5Lh1D+pV1UED66eyA8jbQKqY48XQU+2ZmNSYuSsCrGcsHlpLwyzPwzFXctTcG2y8Um9dGjavjHxnSxqvVDbD7Jv9n2CwjRRMFptZTeWIDICmopPXipqwJEU07Vcr0dvJiOn7adg/4Glml1kMVD7XY6deokX6lb1CkBIho2bIhZs2bBy4t/vgq531buv4Bv/jmqqGWLOQxp15DFRUxJA6fpqcdT9EyEhs9PwIbzRcgoulrQZyr0Nym2Ey9ZVpRoMGDeFfx8OA+ZxeUmnR2p1uebmcOtPveHihuVpLqPCYnQTM3PtVSWlbFC1Bvh5+iEdgoE6FxyjqKYRW2ACk7Ly9UpvKZst8d/3o08BU1e6UA8duxY5plR4pWpTdQ5AaI3mkY2jBw5Ur7CDw302iydFK0RD6K07FmjOrHUZHPYeqkYt/6WjNukB8Vo1pwpZO45Xi2iIXKHEnX46VAeHluVjqE/JODJNelMiEyFCgdpcFn7RvxxCrWgpqO8hwjKfuvlb/3fkQuyfmoQICqaJQvIiXNjI2Gmws+6Ao3Ypl5vanQ7yCzQ4YVf90siVCxf4SMkJASPPPII/PysO3pES9T6QtQbkZ6ezjpmX7p0Sb5iHLqXOzYKwZJnxqN+oHXcMpn5JbjjszXYFaMspbM6qITC180RPm4OiPB2QptQV7QMcUG49NzLtR6cpT9AQ+NySypwOcuAMxl6XMg0IFuycsi1RzU+5kLNId++vR/uHdrOakW+17Jszznc9cXf8qpmqO3Oxh6DtZeAIG2aFfkFqCysWTD+yE3HQwnnuHrEURPYxU+Pq3E2Tm2B4j264gJVppxSD7uv/jmFT9aeYH3tlPDOO++wkEBtb7dTE3VWgIhdu3bh1ltvRU5OjnyFj/HdmuL7h0fCy0oza6hJ6ozP/8aBiynSyc1+3y6K9ZBV9/qU3qylii34ZNUhvPrbTnlVM70l62dp574IddVYlwBp0yvPzq4xBkTsKsrD1LjTSGdtlmqGshGpW/XYrtpMuFCPSlbvQ6MW1GBbTDJmztuhyPVGXphhw4bhzz//rHNZb9dT51xw19K1a1c89NBD3CO8q1h18CLeWbYHRRzdq9UgUrK2aMwxxYXsFTphv3prb7w62XbiQ+QrSI8NdHGBqw1/1xvBst8MxuM1QY7O3JlwFB+kdlC1HYOhlNX8qMHRuEzmelMiPkTbtm0xe/bsOi8+RJ0WIBIeSkgwJQPlp80nsXjHGbMC+7zQFtImKgg/SFbXHf1bX71oR9A0TKr1mTWyE5xNapyqHtTskhcPRyfNFZ8SlYWFzA1nDA9JPHljQEyAODtD2CuU7Vaqp9Hw5t+zCZmFTHxo1IISqCXY008/jebNm8tX6jZ1WoAImrcxb948BAcrCzYX6gwsKeFobLp8xfJQp4RP7x2Mp2/qxlwmWocsnaZhflj4xBhMG9DG5uJDKBm77VrPwSq96ZRQqdOhUs/3b2C/P2cOH7l2eVsT2SMkOrqSYiZC5kL3/md/n8TJK8p6RVLW26RJk3DLLbew5wIhQAwa/vThhx8qalhKUGzmifmbFaX1mgvVBr00qSc+v28I2jXUaIaWBMV77hjQGn++MIENHtMKLgoCvmXSpqXCYVk12PyfAv5MtTIWbuf7B5DOOjlqz9pTAxKfUn0xyqkBr5nQq/nztnP480Cs4mxYSnqixIO6nHRwPUKAZG666SbWsFTph+Po5TTM+m4jEyNrQfNQbunZgmUtPTSyIxtloCUaBvvix0dGsfn70WHaqu6mEei86KTTsmlVThaiREdBDHlhHJ0kWLzn/ao5O7WRMoN6Xa6X7L7IMt6U1kxFR0fj/fffr9Mp19UhBEjG3d0dTz31FLp16yZf4efAhRS8tXSPVTtn04m1cYgvPrprEFa8MBGdmoSwFGdbQa4qKiqdOaIjdr0/lY3VVrLZWwsfD/7fKa/MAEMNtTbWhApPKyjtWsGpO7e8DAbO4XQ0LtvUCaJaplx6DSjjzdy4D1k7m08l4Z3lh1GsVyY+3t7eLO7TurX9xW8tjRCgawgLC8MXX3zB2qIrgT6cy3afw+w/97NZQtaG5vqvevEWfHL3YLbxm9LCx1RIeKLD/PDomM749cmxmD19gKaHm1E2Hi+p+hJmBdkc6fNVmV8oHeWVbXypZaXMCuKBxlv7KhBne6BCEh8aMEf93swlJiEH7684iqxC5YdMmvFD5R4i7vO/iFfkOihFkkRIaVICCc+364/h3T/22qRWJ8DbjWXIffvgcKx55RbcO6Q9yz6zFCQ8NHf/k7sH4a+XbsYbt/VhRYxaSDSoiRYRAfIz4yTpilFSbnsBqigoQGWJ8rqVRIMexZybr6tk/YT6arDjt4lQvEynVyfpICOvBI/+tAunE5XHeinp4JVXXoGnZ+15bdXEUXpx3pCfC2RoFjsNr9u9e7d06OQ/dVIq68n4TOaKahsVZPUMKvrPkR+f6oZGdWmCmcM7oIlknZRJvxd5IGiaJFlrSgWS3DOeri4sC69hsA9u7tUcH0nC88ItPdG1aRj8Pd1sWtujBHdXJ3y+5oi8qhmyHvoHBqOVl3UG5VVHZXEJKgso7Vq+wEmp9D4vzUnH3mK+Lu5kGT4iWbHWbgxrCcjdpi8tRpnB/KSDNEl8Hvh+O47FKetwTcWmXbp0wXfffce6XQuqp053QqiJvLw8PP/881iwYIF8hR/apD+YPoC5w7QAiU5abjHOJmWxXmgp2QVIkdbpuUVsdDAVIFIKbrm04bo4OzIRo42IGoaG+XkyQW0Q5I2WkYFoHuFv17EC+rA3e2geUjhHJd9dvwnmte8hr6wLpVxX5OZTIEO+wk9mmQF3xJ/G9kK+OT80FPCf1yazQ4q9o5csH6r3MReK6b629BDLeFPahDg8PBw//PADBg0axMRIUD1CgGqARIh8tzt27JCv8EOb9/xHRmJYh0byFe1AgkSCQ8JDvazIIiqXrtHJkaw2snjIorkqRo5sbk9tYsYXf+OPPefkVc34O7sgdvBN8HS0ruhWlpD4SNaLifGL07oiDLp4FPnVTE2tjucmdsfrU/rIK/uFEg6ujtY2b1uje+SJBXuwUhIfpT3eSHB++uknVu8jUq5rRsSAaoDqgqhItWPHjopPMVkFJZj5zQZsPXnFJjGhmiCRIQvH38uNuV7IwokM8GINViOkr6GS1UPuNh93l1onPoSSuqQcQymWpybIKytAB4GiYkl8JMvFRPEhVuZlcIsPMdiO2zxVQVNNr1o+5t1vVGhKXQ6W7rmkWHyou8rLL7+MKVOmCPHhQAiQEaKioljfJvqqlLTcIjz3yzbsO58sXxFoga7RoYpSxH9OuIw8BfU3JiMJTkVBIet0LR3B5YvKIffbz1kp8so4dBDpIr0m9kxZWSmL+5ibbl2kL2NdDpbu5e+SXwXFjadNm4ZHH31UviIwhhAgI5Dl06dPH3z99deKm5YSMQlZuPvLdThmxZY9gpoJ9vFABwWziE4U5GBrVpq8shCSwFVkZV/t82aG5UP8lJ2CBAWFl2O6RLNR8PZKeXk5dLqiGgf08UKjFeZvOWtSXzzaJ1599VX4+Cgfp19XEQLEAXWtpTYaJEKmfLioS8L0z9YyESLfssC20Im/V8tI7ixFsn5+T4lnhamqI22a5HIrz5TEh8YrmPnxuKgvwfwsfoubZjLd1q+VvLI/qNBUV1JgtvhQZ4Mv1p00qcsBHVLJTf/rr7+yIXMCfoQAKWDChAl44okn4OHBX8xYRWx6Hh6fvxmHL1n4JC0wCm26fVpEKmroui49Gesz+N1aRpFO7RUU68nOMSvZ4Fp0lRX4WbJ+khRYP20aBKJlpLbaJfFSIb2GesnyMbfWhzobfLX+NHO9mQJ106eMt4AA/hozwVWEACmA2vXQCN3JkyfLV/gh3/ThS6m48/O1rHWPwLb0bBGBhiH89T1F0kn7uTNHkKBTNnb5fyDhKSiQLJ4sVOblc3e25uFocQFzvxk4rWyyAAe1a4ggb+UHKltTWVmOEp30OipItKgOui8/+OsovpYESGmLHYIsnvfeew+tWtmvFWlLhAAphPo6zZ07l1U4U9BRCbQvXMnIx9RPVmPziXirzBISVA8lITwyupOiYuEkXQnuPb4P2bwFjvSGU/1IWdnVtOrsbJSnZchtdaRTO6dQ8JBWVoqZieeQpcBNGOzrgTFdozXfveJ6qLVOcVEhs4DMgQbJPf/rfszbdAbFCt1uhL+/P9sLBgwYINrsmIjohGAC9GHr378/kpOTcfbsWXZDKIHSPMkKotTnlvUD5asCa9MsPAAbjsVxF6USqXod9JIA9XL1hLMsLkxM6CROMRyDJDaSVVOp07P2ORVFRagslB7FJVf/nAVIKNXhscTz2FuUL1/hY3iHRnhwREfmkrQX6F7T6wrNtnyyC/V4988j+H3vZZMOgtQt5ZNPPmFueYHpCAEyEYoD9erVCydOnMDly5flq/zkFOqw9dQVVnPTXsNzfWoztPGG+Xlg5YEL0sbGtwnRjKATBblwk4Sml5P7VaGRRIl9pWFx0lfQo1SykmhsNomUipbO9RRIVsBrqbH4My8DSo5Brs6O+Omx0Qj3t58eZZWVFSzhwFzxoSJsKjJdfThOcZ0PQYlIb7/9tmgwqgLi1TMD8v8uWrSIWUOmzHcnEXr2521YuC3GJl20BdSCpj5LQ1ZSaEwNPl9JuYzXki+hgCwgEi+ygkloLCg215MjbcQvpFxiiQckjLxQu50nx3dDazuyvsndVixZeOaID71ESdlFuOvrrVh7JN4k8aGmopRqPWPGDFFoqgLCAjITV1dX1u/p/PnziI2NlT7kyjYgOo1RoSqdwDtHh7G2+ALrQX3tKC17w7FYxUHow9JpPKPMgI7uXvC2Yqse2jaPS//tFyQBXJyjPKuyY+NQvDO1n0W7pasJiY4a2W4xiTl4ackB7DybYtI5gWI+JD6zZs0Slo9KiFdRBcgf/NFHH6F9+/byFWVk5pfggz/349HvNzGrSGBd+rWuj9tNqIWhbtkLJOtjYuxJHCm23kTcf/KzMD0+BqvzlHVoJrzcXFiX9MhAL/mKtmFFpiXmx3x2nUvFXd9sxc4zKSbFfMjl/uyzz+L+++8X4qMiohmpimRkZDC/8KFDhxSNcaiCMrLGdotmnbSpo7bAepRKG91N766QNqgEk07HHg6OeCK4Pu4JjECEs4t0slO3AzKlVseVluDbzGR8k5VkUkEzeRlv79caXz8wzC4y38ol61JXIlk+laZbPtRsd83hK3hp8X7kmDix2MvLC08++STrjm+Kq11wY4QLTkXIPzxkyBDmirt06RLL2FECbSnnk7NxPDaDTRmtH+Sj8jYmuBHU/btzkxDsOpOEDMkiVQoJxJ6ifOmRx2Iz/o5OCHR0VhRbqo7SygocKinA91nJeDM1DusLskxultCnVSS+njlMk6PSr4f1dtMVmyU+5N7+fvMZzFl9zKRJpgRNSX799dfx2GOPCfGxAMICUhmKAaWmpuKhhx7C+vXr5avKaRziizl3DcTITo3N3sQEfJBrZtWBi3jk+03ILTLdFeosvV9hTi7o7umL6f6hGOjlDzeFbpvCinKsystkMZ6TukKkU684M/r0tG4QhAWPjZa+aj/xoLRUh1K9eY1Fqcbn9aWHsPJgrEl93Qjqhv/xxx8zr4bSmj8BH0KALIROp8Pdd9+NdevWQa837fRFIxHYYLtuTeHpJm4Aa/HNP8fw2uJdKNar0/stQLKE+nj5oq8kSC3dPNHA2RUu9RzAZr9Jd1+59H+UWRcvbbyndEXYUZiLfZIlRa111IBGbMy9fyhGSIcZTSMJDhOf0hKzxCc2vQBv/XEY648nmNx7kRIOPv30UzZWQWA5hABZkJycHLz11lv4+eefmSCZAvnq7xzYFo+N6Yym4fbZs8veoE1r7tqj+HAFxQ3UTwohC8nTwRGukgjRzaeXhKZIsniUpFLzQvOe5swYyMaoK+n6YG1IcMjqKaU+dia+DhTv2XQiEZ+vO4VjcZnyVeVER0fjnXfeEUWmVkDEgCwI9Y6jYlUSosOHD8tXlUHp2Sfi0nH4cjp6NA+XrCL769tlb7Duxo1D4OPhgj1nk1Wv0SK7hqwbEh16kACpY+v8F8p0m/fgCIzu0oTV/mgVipXqdIUo421xVA3kZvt2YwzeW3GUWUCmQqO0qev9iBEjRLabFRACZGFohhB9mOnrkSNHTHLH0YEwKauAjZFuHhGA+oE+dte/y96gLgldm4YhPMALeyURUtqi39aQtfzlfUMxuENDTVs+VNtDs3wo480U6N7IKCjBByuP4qsNpjUUJUhsmjVrhiVLlqB3795CfKyEECArQCfqLl26sIwaStEuKuLvPXYttAmuP3q1YJIGqtnzEDF7gdoktYkKZE1kU3IKTfUOWQ0qZB7ZuTFm3zkQfVvV12wWZaX0P7J4WIGpiTU+ZRWV2HU2BS/+dgBrj1wx+b2hjgajRo1ilk/btm3lqwJrIGJAVsRgMDABorG91MjUVKiPV6fGofjy/qF2kdVk71BMKDm7EG8u2YPfdsbIV7WHu4sTHh3TGQ+P6swSWDSL9Hqam2xAf23e5hjM/ec0MiULyFTxIW677TY2dj84OFhknFoZIUA24Ny5c7jvvvtw9OhRVultKjRQ7e3b+2FynxZ2Udth77BNb+MxzP37KOLT81GusM7LUrg4OaJJqC9em9IH47s31XTtGDUULdWXMAEyBToMXE7LZ1luG04kyldNg0ar3HvvvWyejxAe2yAEyAbQqe/MmTMsQ+6vv/6Sr5oGueHGd4vGrFGd0LlJmHQjyd8QWAR6784n52DB1lNYsusM0nLNHFBnJlSwfEf/1pg2sA0b76FlysoNTHxMjfdQ89A/D8Ri3qYYnEnKZe+FqQQGBuKll15ipRKULCSwDUKAbAhlx9Hp69tvvzWpdU8VpDk03fPlyb1wa+8WdjXfxV6hKvtLqblMiH7achJFOnVqhngJ8/PEA8M7sNY64QGemm9iazDoWZq10u4gVSTlFOGNpYew9XQym6dlDqGhoZg/fz769esHFxfhObAlQoBsDGXFfffdd6yZKfWSMwfKjKNGk0+M64oQX084ajj1tjYRl56Hz9ccxtaTV5CeV4z8Yj2r71ETymTz8XBFqJ8HJvVqjvuGdWA1PlqnUhIcvSQ8JECmQIk3hy9n4tXfD0pWT4581TQo2YAy3CjZgGp9BLZHCJAGIOuH2vbMmTMHBw4cMMu1QFANy71D22OyZA2J2JB1oLcsPa8I+8+nYM/ZJByPT8fZxGwmSKZCB4jIAG82Nbdj42B0axqOni0iEODlJv8JbUP93Er1OpSXK7dYKNZzNikXv+w4j+X7L6OgxDyrh8ogKN5DPd2ioqLkqwJbIwRIQ8TFxeG1117Dn3/+aVZyAkGte7pEh7Eq+LZRQfJVgTUwlFUgT7KC8kv0uJiSg32SKJ1NzMK5pGzEStYSue+qw9PNBU3D/NAiMgCtJNHpJYlNVLAPO0T4eriwhqn2QaVk9ZTAUKoz6TBFf2Xx7gv4Yt0pXMkqZMXY5kDxHjrc3XTTTWysgkA7CAHSGIWFhXjzzTexcOFC5OXlyVdNhzav52/ugan9WrHx3wLbQid76jGXX1zK4kbUocDT1Qm+nm5sOJ69O02psJRcbqZ0NaBWOmcSc/Dun0ew/UyKfNV0KLOtefPm+PDDDzFs2DCR6aZBhABpELJ+/vjjD3bjULacuS45Skro0zISM0d0xPCOjVi9iECgJpRebZBEh6weUyaXXsksxO97LmLZvsvsubmQpUMWD83xadeunXxVoDWEAGkUEiEa8/3iiy+aNdbhWqhuaFDbKLx5e1+WvisQqAGzenRFciansu2E+uyR6FAfN+rhViZZQeZC9T3kyp4+fTobqSDQLkKANA4J0WeffYbPP/8cmZmZZltDhJuLIx4b0wV3D2nHgtwiW05gCvRZrEqvVvq5LNKXsay2j1cfx7aYZOnvy98wA0qpbtWqFebOnYuuXbvKVwVaRgiQHUAtfLZv385EaNOmTfJV86DYQ+v6gZjavzVu7dMC4f7aLmIUaIuyMgNzt1GmmxJoszl4MR1Ldl/E6iPxZme3VUGWzj333INHH32UdbQW2AdCgOwEOmFmZWXhq6++YhaRqfOFrof6yjUL98czE7pjQo9mmi9oFNgWKiQli4cEiOI+SkjIKmQWz+ZTScgq0LOEDDVo0qQJq+3p3r276GpgZwgBsjPIJbdy5Uo2MOvChQtmp2tXQYWO/ds0wHMTu7MO0BQvEllDgiroAET1PKx7tYJuBpTZlp5Xgj/2XcYPW84gI1+9AX8U6xk9ejRLsaZGogL7QwiQnXL58mXMmzcPS5cuRUqK+SmrVbg5O2Fg2wasqeWYLtHa7qossArM3WbQKU6tPnklG2uPXsHqQ3G4lJYvXzUfmtXTuXNnPPTQQxg3bhwTIoF9IgTIjqE2PjTe4fnnnzd54uqNoCanlCn3yOjOrKMCueoEdQtysel15G4rZRYQL5RG/eU/p7DxRCIyCyThUiGzrQpysZHwPPjgg6hfv76w0u0cIUC1ABKi999/Hz///DPrJ2dqw8cb0a1pGIsR0YTQYB8PkTVXy2E1PaV6NjKBN85TXFqGlJxiLNlzEYt2XEBOkWm9326Eq6sry3Cj2jhqIiqoHQgBqiVQDca+fftYZ+1Vq1axzDk1oWJWmsI6qnMTjOjUGO2igsVY8FoG1fOQtUOutnLOKaU5hXrsOJuCbaeTWXIBxXvUhnq3UYYbjU4ICQmRrwpqA0KAahnUvmfr1q14/fXXWSGr2pAQkRVEfcoeH9uFWUUC+4fV85SWoIIzqaVIb8CvOy9i8e6LSMwuRGGJQfUO4FTXQ9NKn332WSZCYnRC7UMIUC2FXHGUHUQtfdLT01XLlrueQe2i2Ahoso4oYYGmcwrsA3KvkaXDhsRxWDw0hycltxhrj8Rj/tZzyLCAtUNQnKd169asm8GQIUPg6Cg+U7UVIUC1HBr7/csvv+D3339nA/AsAYlOy8gAlsbdr3V91nfO305GBtRFKEbIXG3So9xI+5zyikqWwbb3fBr2XUjDfulBIqRSCc9/IKHp0KEDa6EzefJk1sVaULsRAlQHKC4uZu44qh1at26d6kkKVVBGEo0NCPP3xOjO0ZgxqA2iw/3tvsNzrUFSjVKDjiUYXP0M3PjWp/qdfZLo/Lb7Ig5cTGfZbDcaI6EGXl5eeOqpp3DnnXeyTgaUai2o/QgBqkOUlpayuiFq6RMbG4uioiL5O5aBUrlHdmqMaQNao1WDQDZIzctN+PGtiiQ61HGArB2K8dCE0uogSyevuBSZ+TpsOpmIxXsu4mJqnkUsnSrowBIUFITBgwfjjTfeQKNGjeTvCOoKQoDqIGlpaVi7di0bfLdz504mTJaE0rYbBvuydO7OTUPRubH0aBLK5t8ILAPrXFBmkITHwDoYVDcigcQlq1CH43FZOHgpHUdiM3FUehTo1M2gvB4SHrJyqIh0woQJ6NWrF0uzFtQ9hADVUcgFQzGhXbt24d1338XJkyfl71gWSt3293RDVJAPxvdoipt7NkejYB9RUKgSJDyURk2dC0h0qisg1RnKWUxnxYFYHLqcgexCPRuQp1ZvtppwcnJi6dT3338/mjVrxkZlC+ouQoAErLHpkiVLWKPTS5cuQfpMyN+xPE4ODmgdFchcdYPbNUSjEF/4erjCy82ZdewWGIdEpqKyQhIePUunvtbNRvN28ksMrDD0RHw2c6/tPJPCYjrWgg4XlFDQu3dvvPzyy2jfvr38HUFdRwiQ4F+op9yaNWvw999/Y8eOHSx5wZpQJ24SoLZRwWgjiVLbqCC0bhCE+oHeohXQ/0DNQSmN2sBcbZRGTWnVdDPnSmJDmWtnk3JwJjEXMdLXs0m57Lo1b3ZKJKBO1SNHjsSYMWPQs2dPYfEI/oMQIMF/oNN0bm4uLl68yFrcU+dttUY/KIHiRpSw4OPhgiBvD7RvFIyeLcIxoHUUooK966zLjrxkZWV6Zu1QbRe9X2TlnEvOxZ7zqdh/IR3nU/KYSy2/pJRlrtniBqcYz6xZs3DLLbcgIiJCxHgE1SIESHBDaHOj2NCnn37KkhWouNXSCQvGoLERjUN90btFJPq0imTC5OPuCndXJ7i7XH3UpmJYeg/oUaI3oECySOlRpCtFUnYRDl3KYLU5R+MyVRvsZip0IKBU6saNG7O2OdOmTYOnp6f8XYGgeoQACbiIiYlhNUT0oA7c1ABVC1CcKMTHA5GBXtLDm7nrooJ92NfIAC+E+Hog0Nsd3u72kf5NnaOzC3XIyCtCcnYBEjPzkZRFjwIk50jXcorZ17yiUptYNtVBFs6gQYMwbNgw9ggICJC/IxDUjBAgATfU8JQy52gQHnXeXr58udXjRDxQLMnd1ZlZQxQ7cpUsIhqwR5YTxZjo0TjUD1FB3kygqF7JmlC2WY4kMsmSFROXnodY6RGXlovL0tfkrEKUlJZBbyhjX68+L7dKhpoSKL5D3anvu+8+jBgxgg2EI4tHZDMKlCAESGAy1GOOhIjqia5cucJiR+QusjdIgMhKCpIegT7Sw9uNrX08XCXLyRmO0mbr7uzEhM3NVfoqrenvODrWQ4m+jFktNI6AkgKoSWdZRQUTDeqdll1QgizpkUlf8+mrTrJwSlBRYX+vk7OzMysc7dq1KxOegQMHigahArMQAiQwGxKe/fv3sy7cFCs6deqUzWNFAnUgiyY0NBTdunVD37590b9/f7Rt25bV8wgE5iIESKAaJDpZWVlITExk6dzU9ic+Pt4uraK6DglMx44dcfvtt7OO1GFhYfDxEQXDAnURAiSwGJS+vWfPHlbkunv3bmRmZqKgoEAIkgYh95q/vz8TmqFDh2Lq1KksxiOaggosiRAggcWhtj9kFR08eBBHjhxhGXX0lWJIAttBokPtcNq0aYPOnTuje/fu6NSpE5vHIxBYAyFAAqtCmXRkBVE2HcWKKK2bGqNSjZHA8tDMHbJshg8fzpqB1q9fH76+vqyGR7jXBNZGCJDA5pAokauOhGj79u0sjkQiReMi6HsC5ZCYUNsbEhaK3ZClQy1xRo0axcZbCwRaQAiQQFNQ3IhmFVErIKo3unz5MmuQeu7cOdarTnBjyKVG4tKiRQvWg43GWpPw0IPqdEQ8R6A1hAAJNI30+WSWEFlEJEY0PoI6MRw/frzOu+0oU61ly5ZsjDU1+qQYjp+fH7N4PDw8RI2OQPMIARLYJZRJR666o0eP4sSJE+xByQ35+flMtKhVED0MBhrGZpkR5JaExIUaeJKIkCuNEgNIXGiUAQkOfW3Xrh28vb3lvyEQ2B9CgAS1BnLfJSUlMVcdWUeUZUciRenftKavVY+8vDz2522ZEk4iQ+1rqHcadRggNxl9vfY5fQ0JCWHJAjRTR7jRBLUJIUCCWg0JDBXIkjVU9bXKMiJL6UYClZ2dzQSKet3R2AP6s5QQUbUuLCxklhVZJ1VWCsVgSFBIWKrWZKFcKyYkIlVryj6jv0t/jv58lcVDXylbTSCo7QgBEggEAoFNEPa8QCAQCGyCECCBQCAQ2AQhQAKBQCCwCUKABAKBQGAThAAJBAKBwCYIARIIBAKBTRACJBAIBAKbIARIIBAIBDZBCJBAIBAIbIIQIIFAIBDYBCFAAoFAILAJQoAEAoFAYBOEAAkEAoHABgD/B+imIamb0CnNAAAAAElFTkSuQmCC;" parent="WIyWlLk6GJQsqaUBKTNV-1" vertex="1"><mxGeometry x="275.55" y="150" width="96.9" height="99" as="geometry"/></mxCell><mxCell id="IAIoXoFmA8qTHMix6zNg-37" value="&lt;p style=&quot;line-height: 220%; font-size: 14px;&quot;&gt;&lt;u&gt;Editar mi información personal&lt;/u&gt;&lt;/p&gt;" style="text;html=1;strokeColor=none;fillColor=none;align=left;verticalAlign=top;whiteSpace=wrap;rounded=0;fontColor=#000000;" parent="WIyWlLk6GJQsqaUBKTNV-1" vertex="1"><mxGeometry x="162" y="489" width="336" height="86" as="geometry"/></mxCell><mxCell id="IAIoXoFmA8qTHMix6zNg-38" value="&lt;h1&gt;&lt;font style=&quot;font-size: 17px;&quot;&gt;Redes sociales&lt;/font&gt;&lt;/h1&gt;" style="text;html=1;strokeColor=none;fillColor=none;spacing=5;spacingTop=-20;whiteSpace=wrap;overflow=hidden;rounded=0;fontColor=#5CB874;" parent="WIyWlLk6GJQsqaUBKTNV-1" vertex="1"><mxGeometry x="160" y="536" width="330" height="45" as="geometry"/></mxCell><mxCell id="IAIoXoFmA8qTHMix6zNg-39" value="" style="html=1;shadow=0;dashed=0;shape=mxgraph.bootstrap.rrect;rSize=5;strokeColor=#DFDFDF;html=1;whiteSpace=wrap;fillColor=#FFFFFF;fontColor=#000000;" parent="WIyWlLk6GJQsqaUBKTNV-1" vertex="1"><mxGeometry x="163" y="575" width="331" height="96" as="geometry"/></mxCell><mxCell id="IAIoXoFmA8qTHMix6zNg-40" value="RedSocial1" style="strokeColor=inherit;fillColor=inherit;gradientColor=inherit;fontColor=inherit;html=1;shadow=0;dashed=0;shape=mxgraph.bootstrap.topButton;rSize=5;perimeter=none;whiteSpace=wrap;resizeWidth=1;align=left;spacing=10;sketch=1;curveFitting=1;jiggle=2;" parent="IAIoXoFmA8qTHMix6zNg-39" vertex="1"><mxGeometry width="331" height="30" relative="1" as="geometry"/></mxCell><mxCell id="IAIoXoFmA8qTHMix6zNg-41" value="RedSocial2" style="strokeColor=inherit;fillColor=inherit;gradientColor=inherit;fontColor=inherit;html=1;shadow=0;dashed=0;perimeter=none;whiteSpace=wrap;resizeWidth=1;align=left;spacing=10;sketch=1;curveFitting=1;jiggle=2;" parent="IAIoXoFmA8qTHMix6zNg-39" vertex="1"><mxGeometry width="331" height="30" relative="1" as="geometry"><mxPoint y="30" as="offset"/></mxGeometry></mxCell><mxCell id="IAIoXoFmA8qTHMix6zNg-42" value="RedSocial3" style="strokeColor=inherit;fillColor=inherit;gradientColor=inherit;fontColor=inherit;html=1;shadow=0;dashed=0;shape=mxgraph.bootstrap.bottomButton;rSize=5;perimeter=none;whiteSpace=wrap;resizeWidth=1;resizeHeight=0;align=left;spacing=10;sketch=1;curveFitting=1;jiggle=2;" parent="IAIoXoFmA8qTHMix6zNg-39" vertex="1"><mxGeometry y="1" width="331" height="30" relative="1" as="geometry"><mxPoint y="-30" as="offset"/></mxGeometry></mxCell><mxCell id="IAIoXoFmA8qTHMix6zNg-52" value="" style="pointerEvents=1;shadow=0;dashed=0;html=1;strokeColor=none;fillColor=#505050;labelPosition=center;verticalLabelPosition=bottom;verticalAlign=top;outlineConnect=0;align=center;shape=mxgraph.office.concepts.writing_pencil;" parent="IAIoXoFmA8qTHMix6zNg-39" vertex="1"><mxGeometry x="288" y="10" width="11" height="12" as="geometry"/></mxCell><mxCell id="IAIoXoFmA8qTHMix6zNg-53" value="" style="pointerEvents=1;shadow=0;dashed=0;html=1;strokeColor=none;fillColor=#505050;labelPosition=center;verticalLabelPosition=bottom;verticalAlign=top;outlineConnect=0;align=center;shape=mxgraph.office.concepts.writing_pencil;" parent="IAIoXoFmA8qTHMix6zNg-39" vertex="1"><mxGeometry x="288" y="42" width="11" height="12" as="geometry"/></mxCell><mxCell id="IAIoXoFmA8qTHMix6zNg-54" value="" style="pointerEvents=1;shadow=0;dashed=0;html=1;strokeColor=none;fillColor=#505050;labelPosition=center;verticalLabelPosition=bottom;verticalAlign=top;outlineConnect=0;align=center;shape=mxgraph.office.concepts.writing_pencil;" parent="IAIoXoFmA8qTHMix6zNg-39" vertex="1"><mxGeometry x="288" y="77" width="11" height="12" as="geometry"/></mxCell><mxCell id="IAIoXoFmA8qTHMix6zNg-55" value="" style="html=1;verticalLabelPosition=bottom;labelBackgroundColor=#ffffff;verticalAlign=top;shadow=0;dashed=0;strokeWidth=2;shape=mxgraph.ios7.misc.delete;fillColor=#666666;strokeColor=#ffffff;sketch=0;" parent="IAIoXoFmA8qTHMix6zNg-39" vertex="1"><mxGeometry x="308" y="10" width="12" height="12" as="geometry"/></mxCell><mxCell id="IAIoXoFmA8qTHMix6zNg-56" value="" style="html=1;verticalLabelPosition=bottom;labelBackgroundColor=#ffffff;verticalAlign=top;shadow=0;dashed=0;strokeWidth=2;shape=mxgraph.ios7.misc.delete;fillColor=#666666;strokeColor=#ffffff;sketch=0;" parent="IAIoXoFmA8qTHMix6zNg-39" vertex="1"><mxGeometry x="308" y="42" width="12" height="12" as="geometry"/></mxCell><mxCell id="IAIoXoFmA8qTHMix6zNg-57" value="" style="html=1;verticalLabelPosition=bottom;labelBackgroundColor=#ffffff;verticalAlign=top;shadow=0;dashed=0;strokeWidth=2;shape=mxgraph.ios7.misc.delete;fillColor=#666666;strokeColor=#ffffff;sketch=0;" parent="IAIoXoFmA8qTHMix6zNg-39" vertex="1"><mxGeometry x="308" y="77" width="12" height="12" as="geometry"/></mxCell><mxCell id="IAIoXoFmA8qTHMix6zNg-50" value="&lt;h1&gt;&lt;span style=&quot;font-size: 17px;&quot;&gt;Servicios principales&amp;nbsp;&lt;/span&gt;&lt;/h1&gt;" style="text;html=1;strokeColor=none;fillColor=none;spacing=5;spacingTop=-20;whiteSpace=wrap;overflow=hidden;rounded=0;fontColor=#5CB874;" parent="WIyWlLk6GJQsqaUBKTNV-1" vertex="1"><mxGeometry x="160" y="678" width="330" height="45" as="geometry"/></mxCell></root></mxGraphModel></diagram><diagram id="FKiktMLiy6S3-PSozZwC" name="Clases">&#xa;    <mxGraphModel dx="780" dy="504" grid="1" gridSize="10" guides="1" tooltips="1" connect="1" arrows="1" fold="1" page="1" pageScale="1" pageWidth="827" pageHeight="1169" math="0" shadow="0">&#xa;      <root>&#xa;        <mxCell id="0"/>&#xa;        <mxCell id="1" parent="0"/>&#xa;        <mxCell id="1kfStLAuFrvgLr8R2SQZ-1" value="MotivoAusencia" style="swimlane;fontStyle=0;childLayout=stackLayout;horizontal=1;startSize=26;fillColor=none;horizontalStack=0;resizeParent=1;resizeParentMax=0;resizeLast=0;collapsible=1;marginBottom=0;whiteSpace=wrap;html=1;sketch=1;curveFitting=1;jiggle=2;" vertex="1" parent="1">&#xa;          <mxGeometry x="80" y="90" width="160" height="208" as="geometry"/>&#xa;        </mxCell>&#xa;        <mxCell id="1kfStLAuFrvgLr8R2SQZ-2" value="- id: Long" style="text;strokeColor=none;fillColor=none;align=left;verticalAlign=top;spacingLeft=4;spacingRight=4;overflow=hidden;rotatable=0;points=[[0,0.5],[1,0.5]];portConstraint=eastwest;whiteSpace=wrap;html=1;" vertex="1" parent="1kfStLAuFrvgLr8R2SQZ-1">&#xa;          <mxGeometry y="26" width="160" height="26" as="geometry"/>&#xa;        </mxCell>&#xa;        <mxCell id="1kfStLAuFrvgLr8R2SQZ-3" value="- nombre: String" style="text;strokeColor=none;fillColor=none;align=left;verticalAlign=top;spacingLeft=4;spacingRight=4;overflow=hidden;rotatable=0;points=[[0,0.5],[1,0.5]];portConstraint=eastwest;whiteSpace=wrap;html=1;" vertex="1" parent="1kfStLAuFrvgLr8R2SQZ-1">&#xa;          <mxGeometry y="52" width="160" height="26" as="geometry"/>&#xa;        </mxCell>&#xa;        <mxCell id="1kfStLAuFrvgLr8R2SQZ-4" value="- descripcion: String" style="text;strokeColor=none;fillColor=none;align=left;verticalAlign=top;spacingLeft=4;spacingRight=4;overflow=hidden;rotatable=0;points=[[0,0.5],[1,0.5]];portConstraint=eastwest;whiteSpace=wrap;html=1;" vertex="1" parent="1kfStLAuFrvgLr8R2SQZ-1">&#xa;          <mxGeometry y="78" width="160" height="26" as="geometry"/>&#xa;        </mxCell>&#xa;        <mxCell id="1kfStLAuFrvgLr8R2SQZ-5" value="- icono: String" style="text;strokeColor=none;fillColor=none;align=left;verticalAlign=top;spacingLeft=4;spacingRight=4;overflow=hidden;rotatable=0;points=[[0,0.5],[1,0.5]];portConstraint=eastwest;whiteSpace=wrap;html=1;" vertex="1" parent="1kfStLAuFrvgLr8R2SQZ-1">&#xa;          <mxGeometry y="104" width="160" height="26" as="geometry"/>&#xa;        </mxCell>&#xa;        <mxCell id="SkXqXxr2e2DaD9E6OeUW-1" value="- maxDiasPermitidos: int" style="text;strokeColor=none;fillColor=none;align=left;verticalAlign=top;spacingLeft=4;spacingRight=4;overflow=hidden;rotatable=0;points=[[0,0.5],[1,0.5]];portConstraint=eastwest;whiteSpace=wrap;html=1;" vertex="1" parent="1kfStLAuFrvgLr8R2SQZ-1">&#xa;          <mxGeometry y="130" width="160" height="26" as="geometry"/>&#xa;        </mxCell>&#xa;        <mxCell id="1kfStLAuFrvgLr8R2SQZ-6" value="- tipo: TipoAusencia" style="text;strokeColor=none;fillColor=none;align=left;verticalAlign=top;spacingLeft=4;spacingRight=4;overflow=hidden;rotatable=0;points=[[0,0.5],[1,0.5]];portConstraint=eastwest;whiteSpace=wrap;html=1;" vertex="1" parent="1kfStLAuFrvgLr8R2SQZ-1">&#xa;          <mxGeometry y="156" width="160" height="26" as="geometry"/>&#xa;        </mxCell>&#xa;        <mxCell id="1kfStLAuFrvgLr8R2SQZ-7" value="- empresa: Empresa" style="text;strokeColor=none;fillColor=none;align=left;verticalAlign=top;spacingLeft=4;spacingRight=4;overflow=hidden;rotatable=0;points=[[0,0.5],[1,0.5]];portConstraint=eastwest;whiteSpace=wrap;html=1;" vertex="1" parent="1kfStLAuFrvgLr8R2SQZ-1">&#xa;          <mxGeometry y="182" width="160" height="26" as="geometry"/>&#xa;        </mxCell>&#xa;      </root>&#xa;    </mxGraphModel>&#xa;  </diagram></mxfile>